# MagicaVoxel @ Ephtracy

# group
o 

# material
mtllib Item_SpeedUp.mtl
usemtl palette

# normals
vn -1 0 0
vn 1 0 0
vn 0 0 1
vn 0 0 -1
vn 0 -1 0
vn 0 1 0

# texcoords
vt 0.841797 0.5
vt 0.958984 0.5
vt 0.962891 0.5

# verts
v -0.6 0 0.1
v -0.6 0 -0.1
v -0.6 0.1 0.2
v -0.6 0.1 0.1
v -0.6 0.1 -0.1
v -0.6 0.1 -0.2
v -0.6 0.2 0.2
v -0.6 0.2 0.1
v -0.6 0.2 -0.1
v -0.6 0.2 -0.2
v -0.6 0.3 0.1
v -0.6 0.3 -0.1
v -0.5 0 0.2
v -0.5 0 0.1
v -0.5 0 -0.1
v -0.5 0 -0.2
v -0.5 0.1 0.3
v -0.5 0.1 0.2
v -0.5 0.1 0.1
v -0.5 0.1 -0.1
v -0.5 0.1 -0.2
v -0.5 0.1 -0.3
v -0.5 0.2 0.3
v -0.5 0.2 0.2
v -0.5 0.2 0.1
v -0.5 0.2 -0.1
v -0.5 0.2 -0.2
v -0.5 0.2 -0.3
v -0.5 0.3 0.1
v -0.5 0.3 -0.1
v -0.5 0.4 0.2
v -0.5 0.4 -0.2
v -0.4 0.2 0.3
v -0.4 0.2 0.2
v -0.4 0.2 -0.2
v -0.4 0.2 -0.3
v -0.4 0.3 0.3
v -0.4 0.3 0.2
v -0.4 0.3 -0.2
v -0.4 0.3 -0.3
v -0.3 0.3 0.3
v -0.3 0.3 0.2
v -0.3 0.3 -0.2
v -0.3 0.3 -0.3
v -0.3 0.4 0.3
v -0.3 0.4 0.2
v -0.3 0.4 -0.2
v -0.3 0.4 -0.3
v -0.3 0.5 0.2
v -0.3 0.5 -0.2
v -0.1 0.4 0.3
v -0.1 0.4 0.2
v -0.1 0.4 -0.2
v -0.1 0.4 -0.3
v -0.1 0.5 0.3
v -0.1 0.5 0.2
v -0.1 0.5 -0.2
v -0.1 0.5 -0.3
v -0.1 0.6 0.2
v -0.1 0.6 -0.2
v 0 0.5 0.3
v 0 0.5 0.2
v 0 0.5 -0.2
v 0 0.5 -0.3
v 0 0.6 0.2
v 0 0.6 -0.2
v 0 0.7 0.3
v 0 0.7 0.2
v 0 0.7 -0.2
v 0 0.7 -0.3
v 0 0.8 0.2
v 0 0.8 -0.2
v 0.1 0.3 0.4
v 0.1 0.3 0.3
v 0.1 0.3 -0.3
v 0.1 0.3 -0.4
v 0.1 0.4 -0.3
v 0.1 0.4 -0.4
v 0.1 0.5 0.4
v 0.1 0.5 0.3
v 0.1 0.5 -0.3
v 0.1 0.5 -0.4
v 0.1 0.7 0.3
v 0.1 0.7 0.2
v 0.1 0.7 -0.2
v 0.1 0.7 -0.3
v 0.1 0.8 0.3
v 0.1 0.8 0.2
v 0.1 0.8 -0.2
v 0.1 0.8 -0.3
v 0.2 0.5 0.4
v 0.2 0.5 0.3
v 0.2 0.5 -0.3
v 0.2 0.5 -0.4
v 0.2 0.6 0.4
v 0.2 0.6 0.3
v 0.2 0.6 -0.3
v 0.2 0.6 -0.4
v 0.3 0.6 0.4
v 0.3 0.6 0.3
v 0.3 0.6 -0.3
v 0.3 0.6 -0.4
v 0.3 0.7 0.4
v 0.3 0.7 0.3
v 0.3 0.7 -0.3
v 0.3 0.7 -0.4
v 0.4 0.2 0.2
v 0.4 0.2 -0.2
v 0.4 0.7 0.4
v 0.4 0.7 0.3
v 0.4 0.7 -0.3
v 0.4 0.7 -0.4
v 0.4 0.8 0.4
v 0.4 0.8 0.3
v 0.4 0.8 0.2
v 0.4 0.8 -0.2
v 0.4 0.8 -0.3
v 0.4 0.8 -0.4
v 0.5 0.8 0.4
v 0.5 0.8 0.3
v 0.5 0.8 -0.3
v 0.5 0.8 -0.4
v 0.5 0.9 0.4
v 0.5 0.9 0.3
v 0.5 0.9 -0.3
v 0.5 0.9 -0.4
v 0.1 0.2 0.2
v 0.1 0.2 -0.2
v 0.1 0.8 0.2
v 0.1 0.8 -0.2
v 0.3 0.1 0.3
v 0.3 0.1 0.2
v 0.3 0.1 -0.2
v 0.3 0.1 -0.3
v 0.3 0.2 0.3
v 0.3 0.2 0.2
v 0.3 0.2 -0.2
v 0.3 0.2 -0.3
v 0.3 0.3 0.4
v 0.3 0.3 0.3
v 0.3 0.3 -0.3
v 0.3 0.3 -0.4
v 0.3 0.4 0.4
v 0.3 0.4 0.3
v 0.3 0.4 -0.3
v 0.3 0.4 -0.4
v 0.4 0 0.2
v 0.4 0 -0.2
v 0.4 0.1 0.2
v 0.4 0.1 -0.2
v 0.4 0.2 0.3
v 0.4 0.2 0.2
v 0.4 0.2 -0.2
v 0.4 0.2 -0.3
v 0.4 0.4 0.4
v 0.4 0.4 0.3
v 0.4 0.4 -0.3
v 0.4 0.4 -0.4
v 0.4 0.5 0.4
v 0.4 0.5 0.3
v 0.4 0.5 -0.3
v 0.4 0.5 -0.4
v 0.4 0.6 0.3
v 0.4 0.6 -0.3
v 0.4 0.7 0.3
v 0.4 0.7 -0.3
v 0.4 0.8 0.3
v 0.4 0.8 0.2
v 0.4 0.8 -0.2
v 0.4 0.8 -0.3
v 0.5 0.1 0.2
v 0.5 0.1 -0.2
v 0.5 0.8 0.2
v 0.5 0.8 -0.2
v 0.6 0.5 0.4
v 0.6 0.5 0.3
v 0.6 0.5 -0.3
v 0.6 0.5 -0.4
v 0.6 0.6 0.4
v 0.6 0.6 0.3
v 0.6 0.6 -0.3
v 0.6 0.6 -0.4
v 0.8 0.6 0.4
v 0.8 0.6 0.3
v 0.8 0.6 -0.3
v 0.8 0.6 -0.4
v 0.8 0.9 0.4
v 0.8 0.9 0.3
v 0.8 0.9 -0.3
v 0.8 0.9 -0.4
v 0.1 0.3 0.4
v 0.1 0.5 0.4
v 0.2 0.4 0.4
v 0.2 0.5 0.4
v 0.2 0.6 0.4
v 0.3 0.3 0.4
v 0.3 0.4 0.4
v 0.3 0.5 0.4
v 0.3 0.6 0.4
v 0.3 0.7 0.4
v 0.4 0.4 0.4
v 0.4 0.5 0.4
v 0.4 0.6 0.4
v 0.4 0.7 0.4
v 0.4 0.8 0.4
v 0.5 0.6 0.4
v 0.5 0.7 0.4
v 0.5 0.8 0.4
v 0.5 0.9 0.4
v 0.6 0.5 0.4
v 0.6 0.6 0.4
v 0.7 0.7 0.4
v 0.7 0.8 0.4
v 0.8 0.6 0.4
v 0.8 0.9 0.4
v -0.5 0.1 0.3
v -0.5 0.2 0.3
v -0.4 0.2 0.3
v -0.4 0.3 0.3
v -0.3 0.3 0.3
v -0.3 0.4 0.3
v -0.1 0.4 0.3
v -0.1 0.5 0.3
v 0 0.5 0.3
v 0 0.7 0.3
v 0.1 0.3 0.3
v 0.1 0.5 0.3
v 0.1 0.7 0.3
v 0.1 0.8 0.3
v 0.2 0.5 0.3
v 0.2 0.6 0.3
v 0.3 0.1 0.3
v 0.3 0.2 0.3
v 0.3 0.3 0.3
v 0.3 0.4 0.3
v 0.3 0.6 0.3
v 0.3 0.7 0.3
v 0.4 0.2 0.3
v 0.4 0.4 0.3
v 0.4 0.7 0.3
v 0.4 0.8 0.3
v -0.6 0.1 0.2
v -0.6 0.2 0.2
v -0.5 0 0.2
v -0.5 0.1 0.2
v -0.5 0.2 0.2
v -0.5 0.4 0.2
v -0.4 0.2 0.2
v -0.4 0.3 0.2
v -0.4 0.4 0.2
v -0.3 0.3 0.2
v -0.3 0.4 0.2
v -0.3 0.5 0.2
v -0.2 0.4 0.2
v -0.2 0.5 0.2
v -0.1 0.4 0.2
v -0.1 0.5 0.2
v -0.1 0.6 0.2
v 0 0.5 0.2
v 0 0.6 0.2
v 0 0.7 0.2
v 0 0.8 0.2
v 0.1 0.7 0.2
v 0.1 0.8 0.2
v 0.3 0.1 0.2
v 0.3 0.2 0.2
v 0.4 0 0.2
v 0.4 0.1 0.2
v 0.4 0.2 0.2
v 0.4 0.8 0.2
v 0.5 0.1 0.2
v 0.5 0.8 0.2
v -0.6 0 0.1
v -0.6 0.1 0.1
v -0.6 0.2 0.1
v -0.6 0.3 0.1
v -0.5 0 0.1
v -0.5 0.1 0.1
v -0.5 0.2 0.1
v -0.5 0.3 0.1
v 0.1 0.2 -0.2
v 0.1 0.8 -0.2
v 0.4 0.2 -0.2
v 0.4 0.8 -0.2
v 0.4 0.5 -0.3
v 0.4 0.6 -0.3
v 0.4 0.7 -0.3
v 0.4 0.8 -0.3
v 0.5 0.6 -0.3
v 0.5 0.7 -0.3
v 0.5 0.8 -0.3
v 0.5 0.9 -0.3
v 0.6 0.5 -0.3
v 0.6 0.6 -0.3
v 0.7 0.7 -0.3
v 0.7 0.8 -0.3
v 0.8 0.6 -0.3
v 0.8 0.9 -0.3
v 0.4 0.5 0.3
v 0.4 0.6 0.3
v 0.4 0.7 0.3
v 0.4 0.8 0.3
v 0.5 0.6 0.3
v 0.5 0.7 0.3
v 0.5 0.8 0.3
v 0.5 0.9 0.3
v 0.6 0.5 0.3
v 0.6 0.6 0.3
v 0.7 0.7 0.3
v 0.7 0.8 0.3
v 0.8 0.6 0.3
v 0.8 0.9 0.3
v 0.1 0.2 0.2
v 0.1 0.8 0.2
v 0.4 0.2 0.2
v 0.4 0.8 0.2
v -0.6 0 -0.1
v -0.6 0.1 -0.1
v -0.6 0.2 -0.1
v -0.6 0.3 -0.1
v -0.5 0 -0.1
v -0.5 0.1 -0.1
v -0.5 0.2 -0.1
v -0.5 0.3 -0.1
v -0.6 0.1 -0.2
v -0.6 0.2 -0.2
v -0.5 0 -0.2
v -0.5 0.1 -0.2
v -0.5 0.2 -0.2
v -0.5 0.4 -0.2
v -0.4 0.2 -0.2
v -0.4 0.3 -0.2
v -0.4 0.4 -0.2
v -0.3 0.3 -0.2
v -0.3 0.4 -0.2
v -0.3 0.5 -0.2
v -0.2 0.4 -0.2
v -0.2 0.5 -0.2
v -0.1 0.4 -0.2
v -0.1 0.5 -0.2
v -0.1 0.6 -0.2
v 0 0.5 -0.2
v 0 0.6 -0.2
v 0 0.7 -0.2
v 0 0.8 -0.2
v 0.1 0.7 -0.2
v 0.1 0.8 -0.2
v 0.3 0.1 -0.2
v 0.3 0.2 -0.2
v 0.4 0 -0.2
v 0.4 0.1 -0.2
v 0.4 0.2 -0.2
v 0.4 0.8 -0.2
v 0.5 0.1 -0.2
v 0.5 0.8 -0.2
v -0.5 0.1 -0.3
v -0.5 0.2 -0.3
v -0.4 0.2 -0.3
v -0.4 0.3 -0.3
v -0.3 0.3 -0.3
v -0.3 0.4 -0.3
v -0.1 0.4 -0.3
v -0.1 0.5 -0.3
v 0 0.5 -0.3
v 0 0.7 -0.3
v 0.1 0.3 -0.3
v 0.1 0.4 -0.3
v 0.1 0.5 -0.3
v 0.1 0.7 -0.3
v 0.1 0.8 -0.3
v 0.2 0.3 -0.3
v 0.2 0.5 -0.3
v 0.2 0.6 -0.3
v 0.3 0.1 -0.3
v 0.3 0.2 -0.3
v 0.3 0.3 -0.3
v 0.3 0.4 -0.3
v 0.3 0.6 -0.3
v 0.3 0.7 -0.3
v 0.4 0.2 -0.3
v 0.4 0.4 -0.3
v 0.4 0.7 -0.3
v 0.4 0.8 -0.3
v 0.1 0.3 -0.4
v 0.1 0.4 -0.4
v 0.1 0.5 -0.4
v 0.2 0.3 -0.4
v 0.2 0.4 -0.4
v 0.2 0.5 -0.4
v 0.2 0.6 -0.4
v 0.3 0.3 -0.4
v 0.3 0.4 -0.4
v 0.3 0.5 -0.4
v 0.3 0.6 -0.4
v 0.3 0.7 -0.4
v 0.4 0.4 -0.4
v 0.4 0.5 -0.4
v 0.4 0.6 -0.4
v 0.4 0.7 -0.4
v 0.4 0.8 -0.4
v 0.5 0.6 -0.4
v 0.5 0.7 -0.4
v 0.5 0.8 -0.4
v 0.5 0.9 -0.4
v 0.6 0.5 -0.4
v 0.6 0.6 -0.4
v 0.7 0.7 -0.4
v 0.7 0.8 -0.4
v 0.8 0.6 -0.4
v 0.8 0.9 -0.4
v -0.5 0 0.2
v 0.4 0 0.2
v -0.6 0 0.1
v -0.5 0 0.1
v -0.6 0 -0.1
v -0.5 0 -0.1
v -0.5 0 -0.2
v 0.4 0 -0.2
v -0.5 0.1 0.3
v 0.3 0.1 0.3
v -0.6 0.1 0.2
v -0.5 0.1 0.2
v 0.3 0.1 0.2
v 0.4 0.1 0.2
v 0.5 0.1 0.2
v -0.6 0.1 0.1
v -0.5 0.1 0.1
v -0.6 0.1 -0.1
v -0.5 0.1 -0.1
v -0.6 0.1 -0.2
v -0.5 0.1 -0.2
v 0.3 0.1 -0.2
v 0.4 0.1 -0.2
v 0.5 0.1 -0.2
v -0.5 0.1 -0.3
v 0.3 0.1 -0.3
v 0.3 0.2 0.3
v 0.4 0.2 0.3
v 0.3 0.2 0.2
v 0.4 0.2 0.2
v 0.3 0.2 -0.2
v 0.4 0.2 -0.2
v 0.3 0.2 -0.3
v 0.4 0.2 -0.3
v 0.1 0.3 0.4
v 0.3 0.3 0.4
v 0.1 0.3 0.3
v 0.3 0.3 0.3
v 0.1 0.3 -0.3
v 0.2 0.3 -0.3
v 0.3 0.3 -0.3
v 0.1 0.3 -0.4
v 0.2 0.3 -0.4
v 0.3 0.3 -0.4
v 0.3 0.4 0.4
v 0.4 0.4 0.4
v 0.3 0.4 0.3
v 0.4 0.4 0.3
v 0.3 0.4 -0.3
v 0.4 0.4 -0.3
v 0.3 0.4 -0.4
v 0.4 0.4 -0.4
v 0.4 0.5 0.4
v 0.6 0.5 0.4
v 0.4 0.5 0.3
v 0.6 0.5 0.3
v 0.4 0.5 -0.3
v 0.6 0.5 -0.3
v 0.4 0.5 -0.4
v 0.6 0.5 -0.4
v 0.6 0.6 0.4
v 0.8 0.6 0.4
v 0.6 0.6 0.3
v 0.8 0.6 0.3
v 0.6 0.6 -0.3
v 0.8 0.6 -0.3
v 0.6 0.6 -0.4
v 0.8 0.6 -0.4
v -0.5 0.2 0.3
v -0.4 0.2 0.3
v -0.6 0.2 0.2
v -0.5 0.2 0.2
v -0.4 0.2 0.2
v 0.1 0.2 0.2
v 0.4 0.2 0.2
v -0.6 0.2 0.1
v -0.5 0.2 0.1
v -0.6 0.2 -0.1
v -0.5 0.2 -0.1
v -0.6 0.2 -0.2
v -0.5 0.2 -0.2
v -0.4 0.2 -0.2
v 0.1 0.2 -0.2
v 0.4 0.2 -0.2
v -0.5 0.2 -0.3
v -0.4 0.2 -0.3
v -0.4 0.3 0.3
v -0.3 0.3 0.3
v -0.4 0.3 0.2
v -0.3 0.3 0.2
v -0.6 0.3 0.1
v -0.5 0.3 0.1
v -0.6 0.3 -0.1
v -0.5 0.3 -0.1
v -0.4 0.3 -0.2
v -0.3 0.3 -0.2
v -0.4 0.3 -0.3
v -0.3 0.3 -0.3
v -0.3 0.4 0.3
v -0.1 0.4 0.3
v -0.5 0.4 0.2
v -0.4 0.4 0.2
v -0.3 0.4 0.2
v -0.2 0.4 0.2
v -0.1 0.4 0.2
v -0.5 0.4 -0.2
v -0.4 0.4 -0.2
v -0.3 0.4 -0.2
v -0.2 0.4 -0.2
v -0.1 0.4 -0.2
v -0.3 0.4 -0.3
v -0.1 0.4 -0.3
v 0.1 0.5 0.4
v 0.2 0.5 0.4
v -0.1 0.5 0.3
v 0 0.5 0.3
v 0.1 0.5 0.3
v 0.2 0.5 0.3
v -0.3 0.5 0.2
v -0.2 0.5 0.2
v -0.1 0.5 0.2
v 0 0.5 0.2
v -0.3 0.5 -0.2
v -0.2 0.5 -0.2
v -0.1 0.5 -0.2
v 0 0.5 -0.2
v -0.1 0.5 -0.3
v 0 0.5 -0.3
v 0.1 0.5 -0.3
v 0.2 0.5 -0.3
v 0.1 0.5 -0.4
v 0.2 0.5 -0.4
v 0.2 0.6 0.4
v 0.3 0.6 0.4
v 0.2 0.6 0.3
v 0.3 0.6 0.3
v -0.1 0.6 0.2
v 0 0.6 0.2
v -0.1 0.6 -0.2
v 0 0.6 -0.2
v 0.2 0.6 -0.3
v 0.3 0.6 -0.3
v 0.2 0.6 -0.4
v 0.3 0.6 -0.4
v 0.3 0.7 0.4
v 0.4 0.7 0.4
v 0 0.7 0.3
v 0.1 0.7 0.3
v 0.3 0.7 0.3
v 0.4 0.7 0.3
v 0 0.7 0.2
v 0.1 0.7 0.2
v 0 0.7 -0.2
v 0.1 0.7 -0.2
v 0 0.7 -0.3
v 0.1 0.7 -0.3
v 0.3 0.7 -0.3
v 0.4 0.7 -0.3
v 0.3 0.7 -0.4
v 0.4 0.7 -0.4
v 0.4 0.8 0.4
v 0.5 0.8 0.4
v 0.1 0.8 0.3
v 0.4 0.8 0.3
v 0.5 0.8 0.3
v 0 0.8 0.2
v 0.1 0.8 0.2
v 0.4 0.8 0.2
v 0.5 0.8 0.2
v 0 0.8 -0.2
v 0.1 0.8 -0.2
v 0.4 0.8 -0.2
v 0.5 0.8 -0.2
v 0.1 0.8 -0.3
v 0.4 0.8 -0.3
v 0.5 0.8 -0.3
v 0.4 0.8 -0.4
v 0.5 0.8 -0.4
v 0.5 0.9 0.4
v 0.8 0.9 0.4
v 0.5 0.9 0.3
v 0.8 0.9 0.3
v 0.5 0.9 -0.3
v 0.8 0.9 -0.3
v 0.5 0.9 -0.4
v 0.8 0.9 -0.4

# faces
f 4/1/1 2/1/1 1/1/1
f 5/1/1 2/1/1 4/1/1
f 7/1/1 4/1/1 3/1/1
f 7/1/1 6/1/1 5/1/1
f 7/1/1 5/1/1 4/1/1
f 8/1/1 6/1/1 7/1/1
f 9/1/1 6/1/1 8/1/1
f 10/1/1 6/1/1 9/1/1
f 11/1/1 9/1/1 8/1/1
f 12/1/1 9/1/1 11/1/1
f 18/1/1 14/1/1 13/1/1
f 19/1/1 14/1/1 18/1/1
f 20/1/1 16/1/1 15/1/1
f 21/1/1 16/1/1 20/1/1
f 23/1/1 18/1/1 17/1/1
f 24/1/1 18/1/1 23/1/1
f 27/1/1 22/1/1 21/1/1
f 28/1/1 22/1/1 27/1/1
f 29/1/1 25/1/1 24/1/1
f 30/1/1 27/1/1 26/1/1
f 31/1/1 29/1/1 24/1/1
f 31/1/1 30/1/1 29/1/1
f 32/1/1 27/1/1 30/1/1
f 32/1/1 30/1/1 31/1/1
f 37/1/1 34/1/1 33/1/1
f 38/1/1 34/1/1 37/1/1
f 39/1/1 36/1/1 35/1/1
f 40/1/1 36/1/1 39/1/1
f 45/1/1 42/1/1 41/1/1
f 46/1/1 42/1/1 45/1/1
f 47/1/1 44/1/1 43/1/1
f 48/1/1 44/1/1 47/1/1
f 49/1/1 47/1/1 46/1/1
f 50/1/1 47/1/1 49/1/1
f 55/1/1 52/1/1 51/1/1
f 56/1/1 52/1/1 55/1/1
f 57/1/1 54/1/1 53/1/1
f 58/1/1 54/1/1 57/1/1
f 59/1/1 57/1/1 56/1/1
f 60/1/1 57/1/1 59/1/1
f 65/1/1 62/1/1 61/1/1
f 66/1/1 64/1/1 63/1/1
f 67/1/1 65/1/1 61/1/1
f 67/1/1 66/1/1 65/1/1
f 68/1/1 66/1/1 67/1/1
f 69/1/1 64/1/1 66/1/1
f 69/1/1 66/1/1 68/1/1
f 70/1/1 64/1/1 69/1/1
f 71/1/1 69/1/1 68/1/1
f 72/1/1 69/1/1 71/1/1
f 77/3/1 76/3/1 75/3/1
f 78/3/1 76/3/1 77/3/1
f 79/2/1 74/2/1 73/2/1
f 80/2/1 74/2/1 79/2/1
f 81/2/1 78/2/1 77/2/1
f 82/2/1 78/2/1 81/2/1
f 87/1/1 84/1/1 83/1/1
f 88/1/1 84/1/1 87/1/1
f 89/1/1 86/1/1 85/1/1
f 90/1/1 86/1/1 89/1/1
f 95/2/1 92/2/1 91/2/1
f 96/2/1 92/2/1 95/2/1
f 97/2/1 94/2/1 93/2/1
f 98/2/1 94/2/1 97/2/1
f 103/2/1 100/2/1 99/2/1
f 104/2/1 100/2/1 103/2/1
f 105/2/1 102/2/1 101/2/1
f 106/2/1 102/2/1 105/2/1
f 113/2/1 110/2/1 109/2/1
f 114/2/1 110/2/1 113/2/1
f 115/1/1 108/1/1 107/1/1
f 116/1/1 108/1/1 115/1/1
f 117/2/1 112/2/1 111/2/1
f 118/2/1 112/2/1 117/2/1
f 123/2/1 120/2/1 119/2/1
f 124/2/1 120/2/1 123/2/1
f 125/2/1 122/2/1 121/2/1
f 126/2/1 122/2/1 125/2/1
f 127/1/2 128/1/2 129/1/2
f 129/1/2 128/1/2 130/1/2
f 131/1/2 132/1/2 135/1/2
f 135/1/2 132/1/2 136/1/2
f 133/1/2 134/1/2 137/1/2
f 137/1/2 134/1/2 138/1/2
f 139/2/2 140/2/2 143/2/2
f 143/2/2 140/2/2 144/2/2
f 141/2/2 142/2/2 145/2/2
f 145/2/2 142/2/2 146/2/2
f 147/1/2 148/1/2 149/1/2
f 149/1/2 148/1/2 150/1/2
f 151/1/2 152/1/2 156/1/2
f 153/1/2 154/1/2 157/1/2
f 155/2/2 156/2/2 159/2/2
f 156/1/2 152/1/2 160/1/2
f 159/2/2 156/2/2 160/2/2
f 157/2/2 158/2/2 161/2/2
f 153/1/2 157/1/2 161/1/2
f 161/2/2 158/2/2 162/2/2
f 160/1/2 152/1/2 163/1/2
f 153/1/2 161/1/2 164/1/2
f 163/1/2 152/1/2 165/1/2
f 153/1/2 164/1/2 166/1/2
f 165/1/2 152/1/2 167/1/2
f 167/1/2 152/1/2 168/1/2
f 153/1/2 166/1/2 169/1/2
f 169/1/2 166/1/2 170/1/2
f 171/1/2 172/1/2 173/1/2
f 173/1/2 172/1/2 174/1/2
f 175/2/2 176/2/2 179/2/2
f 179/2/2 176/2/2 180/2/2
f 177/2/2 178/2/2 181/2/2
f 181/2/2 178/2/2 182/2/2
f 183/2/2 184/2/2 187/2/2
f 187/2/2 184/2/2 188/2/2
f 185/2/2 186/2/2 189/2/2
f 189/2/2 186/2/2 190/2/2
f 193/2/3 192/2/3 191/2/3
f 194/2/3 192/2/3 193/2/3
f 196/2/3 193/2/3 191/2/3
f 197/3/3 194/3/3 193/3/3
f 197/2/3 193/2/3 196/2/3
f 198/2/3 195/2/3 194/2/3
f 198/3/3 194/3/3 197/3/3
f 199/2/3 195/2/3 198/2/3
f 201/2/3 198/2/3 197/2/3
f 202/3/3 199/3/3 198/3/3
f 202/2/3 198/2/3 201/2/3
f 203/2/3 200/2/3 199/2/3
f 203/3/3 199/3/3 202/3/3
f 204/2/3 200/2/3 203/2/3
f 206/2/3 203/2/3 202/2/3
f 206/3/3 204/3/3 203/3/3
f 207/2/3 205/2/3 204/2/3
f 207/3/3 204/3/3 206/3/3
f 208/2/3 205/2/3 207/2/3
f 210/2/3 206/2/3 202/2/3
f 210/2/3 207/2/3 206/2/3
f 211/2/3 207/2/3 210/2/3
f 212/3/3 208/3/3 207/3/3
f 212/2/3 207/2/3 211/2/3
f 213/2/3 209/2/3 208/2/3
f 213/3/3 208/3/3 212/3/3
f 214/2/3 212/2/3 211/2/3
f 214/2/3 213/2/3 212/2/3
f 215/2/3 209/2/3 213/2/3
f 215/2/3 213/2/3 214/2/3
f 218/1/3 217/1/3 216/1/3
f 220/1/3 219/1/3 218/1/3
f 222/1/3 221/1/3 220/1/3
f 224/1/3 223/1/3 222/1/3
f 226/1/3 220/1/3 218/1/3
f 226/1/3 225/1/3 224/1/3
f 226/1/3 224/1/3 222/1/3
f 226/1/3 222/1/3 220/1/3
f 227/1/3 225/1/3 226/1/3
f 228/1/3 225/1/3 227/1/3
f 230/1/3 229/1/3 228/1/3
f 230/1/3 228/1/3 227/1/3
f 231/1/3 229/1/3 230/1/3
f 232/1/3 218/1/3 216/1/3
f 232/1/3 226/1/3 218/1/3
f 233/1/3 226/1/3 232/1/3
f 234/1/3 226/1/3 233/1/3
f 236/1/3 229/1/3 231/1/3
f 237/1/3 229/1/3 236/1/3
f 238/1/3 235/1/3 234/1/3
f 238/1/3 234/1/3 233/1/3
f 239/1/3 235/1/3 238/1/3
f 240/1/3 229/1/3 237/1/3
f 241/1/3 229/1/3 240/1/3
f 245/1/3 243/1/3 242/1/3
f 246/1/3 243/1/3 245/1/3
f 248/1/3 247/1/3 246/1/3
f 249/1/3 247/1/3 248/1/3
f 250/1/3 247/1/3 249/1/3
f 251/2/3 250/2/3 249/2/3
f 252/2/3 250/2/3 251/2/3
f 254/1/3 253/1/3 252/1/3
f 255/1/3 253/1/3 254/1/3
f 256/2/3 255/2/3 254/2/3
f 257/2/3 255/2/3 256/2/3
f 259/1/3 258/1/3 257/1/3
f 260/1/3 258/1/3 259/1/3
f 263/1/3 262/1/3 261/1/3
f 264/1/3 262/1/3 263/1/3
f 265/1/3 245/1/3 244/1/3
f 267/1/3 265/1/3 244/1/3
f 267/1/3 266/1/3 265/1/3
f 268/1/3 266/1/3 267/1/3
f 269/1/3 266/1/3 268/1/3
f 271/1/3 270/1/3 269/1/3
f 271/1/3 269/1/3 268/1/3
f 272/1/3 270/1/3 271/1/3
f 277/1/3 274/1/3 273/1/3
f 278/1/3 274/1/3 277/1/3
f 279/1/3 276/1/3 275/1/3
f 280/1/3 276/1/3 279/1/3
f 283/1/3 282/1/3 281/1/3
f 284/1/3 282/1/3 283/1/3
f 289/2/3 286/2/3 285/2/3
f 289/3/3 287/3/3 286/3/3
f 290/2/3 288/2/3 287/2/3
f 290/3/3 287/3/3 289/3/3
f 291/2/3 288/2/3 290/2/3
f 293/2/3 289/2/3 285/2/3
f 293/2/3 290/2/3 289/2/3
f 294/2/3 290/2/3 293/2/3
f 295/3/3 291/3/3 290/3/3
f 295/2/3 290/2/3 294/2/3
f 296/2/3 292/2/3 291/2/3
f 296/3/3 291/3/3 295/3/3
f 297/2/3 295/2/3 294/2/3
f 297/2/3 296/2/3 295/2/3
f 298/2/3 292/2/3 296/2/3
f 298/2/3 296/2/3 297/2/3
f 299/2/4 300/2/4 303/2/4
f 300/3/4 301/3/4 303/3/4
f 301/2/4 302/2/4 304/2/4
f 303/3/4 301/3/4 304/3/4
f 304/2/4 302/2/4 305/2/4
f 299/2/4 303/2/4 307/2/4
f 303/2/4 304/2/4 307/2/4
f 307/2/4 304/2/4 308/2/4
f 304/3/4 305/3/4 309/3/4
f 308/2/4 304/2/4 309/2/4
f 305/2/4 306/2/4 310/2/4
f 309/3/4 305/3/4 310/3/4
f 308/2/4 309/2/4 311/2/4
f 309/2/4 310/2/4 311/2/4
f 310/2/4 306/2/4 312/2/4
f 311/2/4 310/2/4 312/2/4
f 313/1/4 314/1/4 315/1/4
f 315/1/4 314/1/4 316/1/4
f 317/1/4 318/1/4 321/1/4
f 321/1/4 318/1/4 322/1/4
f 319/1/4 320/1/4 323/1/4
f 323/1/4 320/1/4 324/1/4
f 325/1/4 326/1/4 328/1/4
f 328/1/4 326/1/4 329/1/4
f 329/1/4 330/1/4 331/1/4
f 331/1/4 330/1/4 332/1/4
f 332/1/4 330/1/4 333/1/4
f 332/2/4 333/2/4 334/2/4
f 334/2/4 333/2/4 335/2/4
f 335/1/4 336/1/4 337/1/4
f 337/1/4 336/1/4 338/1/4
f 337/2/4 338/2/4 339/2/4
f 339/2/4 338/2/4 340/2/4
f 340/1/4 341/1/4 342/1/4
f 342/1/4 341/1/4 343/1/4
f 344/1/4 345/1/4 346/1/4
f 346/1/4 345/1/4 347/1/4
f 327/1/4 328/1/4 348/1/4
f 327/1/4 348/1/4 350/1/4
f 348/1/4 349/1/4 350/1/4
f 350/1/4 349/1/4 351/1/4
f 351/1/4 349/1/4 352/1/4
f 352/1/4 353/1/4 354/1/4
f 351/1/4 352/1/4 354/1/4
f 354/1/4 353/1/4 355/1/4
f 356/1/4 357/1/4 358/1/4
f 358/1/4 359/1/4 360/1/4
f 360/1/4 361/1/4 362/1/4
f 362/1/4 363/1/4 364/1/4
f 358/1/4 360/1/4 366/1/4
f 364/1/4 365/1/4 366/1/4
f 362/1/4 364/1/4 366/1/4
f 360/1/4 362/1/4 366/1/4
f 366/1/4 365/1/4 367/1/4
f 367/1/4 365/1/4 368/1/4
f 368/1/4 365/1/4 369/1/4
f 358/1/4 366/1/4 371/1/4
f 369/1/4 370/1/4 372/1/4
f 368/1/4 369/1/4 372/1/4
f 372/1/4 370/1/4 373/1/4
f 356/1/4 358/1/4 374/1/4
f 358/1/4 371/1/4 374/1/4
f 374/1/4 371/1/4 375/1/4
f 375/1/4 371/1/4 376/1/4
f 373/1/4 370/1/4 378/1/4
f 378/1/4 370/1/4 379/1/4
f 376/1/4 377/1/4 380/1/4
f 375/1/4 376/1/4 380/1/4
f 380/1/4 377/1/4 381/1/4
f 379/1/4 370/1/4 382/1/4
f 382/1/4 370/1/4 383/1/4
f 384/3/4 385/3/4 387/3/4
f 385/2/4 386/2/4 388/2/4
f 387/3/4 385/3/4 388/3/4
f 388/2/4 386/2/4 389/2/4
f 387/2/4 388/2/4 391/2/4
f 388/3/4 389/3/4 392/3/4
f 391/2/4 388/2/4 392/2/4
f 389/2/4 390/2/4 393/2/4
f 392/3/4 389/3/4 393/3/4
f 393/2/4 390/2/4 394/2/4
f 392/2/4 393/2/4 396/2/4
f 393/3/4 394/3/4 397/3/4
f 396/2/4 393/2/4 397/2/4
f 394/2/4 395/2/4 398/2/4
f 397/3/4 394/3/4 398/3/4
f 398/2/4 395/2/4 399/2/4
f 397/2/4 398/2/4 401/2/4
f 398/3/4 399/3/4 401/3/4
f 399/2/4 400/2/4 402/2/4
f 401/3/4 399/3/4 402/3/4
f 402/2/4 400/2/4 403/2/4
f 397/2/4 401/2/4 405/2/4
f 401/2/4 402/2/4 405/2/4
f 405/2/4 402/2/4 406/2/4
f 402/3/4 403/3/4 407/3/4
f 406/2/4 402/2/4 407/2/4
f 403/2/4 404/2/4 408/2/4
f 407/3/4 403/3/4 408/3/4
f 406/2/4 407/2/4 409/2/4
f 407/2/4 408/2/4 409/2/4
f 408/2/4 404/2/4 410/2/4
f 409/2/4 408/2/4 410/2/4
f 414/1/5 412/1/5 411/1/5
f 415/1/5 414/1/5 413/1/5
f 416/1/5 412/1/5 414/1/5
f 416/1/5 414/1/5 415/1/5
f 417/1/5 412/1/5 416/1/5
f 418/1/5 412/1/5 417/1/5
f 422/1/5 420/1/5 419/1/5
f 423/1/5 420/1/5 422/1/5
f 426/1/5 422/1/5 421/1/5
f 427/1/5 422/1/5 426/1/5
f 430/1/5 429/1/5 428/1/5
f 431/1/5 429/1/5 430/1/5
f 433/1/5 425/1/5 424/1/5
f 434/1/5 425/1/5 433/1/5
f 435/1/5 432/1/5 431/1/5
f 436/1/5 432/1/5 435/1/5
f 439/1/5 438/1/5 437/1/5
f 440/1/5 438/1/5 439/1/5
f 443/1/5 442/1/5 441/1/5
f 444/1/5 442/1/5 443/1/5
f 447/2/5 446/2/5 445/2/5
f 448/2/5 446/2/5 447/2/5
f 452/3/5 450/3/5 449/3/5
f 453/2/5 451/2/5 450/2/5
f 453/3/5 450/3/5 452/3/5
f 454/2/5 451/2/5 453/2/5
f 457/2/5 456/2/5 455/2/5
f 458/2/5 456/2/5 457/2/5
f 461/2/5 460/2/5 459/2/5
f 462/2/5 460/2/5 461/2/5
f 465/2/5 464/2/5 463/2/5
f 466/2/5 464/2/5 465/2/5
f 469/2/5 468/2/5 467/2/5
f 470/2/5 468/2/5 469/2/5
f 473/2/5 472/2/5 471/2/5
f 474/2/5 472/2/5 473/2/5
f 477/2/5 476/2/5 475/2/5
f 478/2/5 476/2/5 477/2/5
f 479/1/6 480/1/6 482/1/6
f 482/1/6 480/1/6 483/1/6
f 481/1/6 482/1/6 486/1/6
f 486/1/6 482/1/6 487/1/6
f 488/1/6 489/1/6 490/1/6
f 490/1/6 489/1/6 491/1/6
f 484/1/6 485/1/6 493/1/6
f 493/1/6 485/1/6 494/1/6
f 491/1/6 492/1/6 495/1/6
f 495/1/6 492/1/6 496/1/6
f 497/1/6 498/1/6 499/1/6
f 499/1/6 498/1/6 500/1/6
f 501/1/6 502/1/6 503/1/6
f 503/1/6 502/1/6 504/1/6
f 505/1/6 506/1/6 507/1/6
f 507/1/6 506/1/6 508/1/6
f 509/1/6 510/1/6 513/1/6
f 513/1/6 510/1/6 514/1/6
f 514/1/6 510/1/6 515/1/6
f 511/1/6 512/1/6 516/1/6
f 512/2/6 513/2/6 517/2/6
f 516/1/6 512/1/6 517/1/6
f 517/2/6 513/2/6 518/2/6
f 519/1/6 520/1/6 521/1/6
f 518/1/6 519/1/6 521/1/6
f 521/1/6 520/1/6 522/1/6
f 523/2/6 524/2/6 527/2/6
f 527/2/6 524/2/6 528/2/6
f 525/1/6 526/1/6 531/1/6
f 531/1/6 526/1/6 532/1/6
f 529/1/6 530/1/6 533/1/6
f 530/2/6 531/2/6 534/2/6
f 533/1/6 530/1/6 534/1/6
f 534/2/6 531/2/6 535/2/6
f 535/1/6 536/1/6 537/1/6
f 537/1/6 536/1/6 538/1/6
f 539/2/6 540/2/6 541/2/6
f 541/2/6 540/2/6 542/2/6
f 543/2/6 544/2/6 545/2/6
f 545/2/6 544/2/6 546/2/6
f 547/1/6 548/1/6 549/1/6
f 549/1/6 548/1/6 550/1/6
f 551/2/6 552/2/6 553/2/6
f 553/2/6 552/2/6 554/2/6
f 555/2/6 556/2/6 559/2/6
f 559/2/6 556/2/6 560/2/6
f 557/1/6 558/1/6 561/1/6
f 561/1/6 558/1/6 562/1/6
f 563/1/6 564/1/6 565/1/6
f 565/1/6 564/1/6 566/1/6
f 567/2/6 568/2/6 569/2/6
f 569/2/6 568/2/6 570/2/6
f 571/2/6 572/2/6 574/2/6
f 574/2/6 572/2/6 575/2/6
f 573/1/6 574/1/6 577/1/6
f 577/1/6 574/1/6 578/1/6
f 576/1/6 577/1/6 580/1/6
f 580/1/6 577/1/6 581/1/6
f 578/1/6 579/1/6 582/1/6
f 582/1/6 579/1/6 583/1/6
f 581/1/6 582/1/6 584/1/6
f 584/1/6 582/1/6 585/1/6
f 585/2/6 586/2/6 587/2/6
f 587/2/6 586/2/6 588/2/6
f 589/2/6 590/2/6 591/2/6
f 591/2/6 590/2/6 592/2/6
f 593/2/6 594/2/6 595/2/6
f 595/2/6 594/2/6 596/2/6
