# MagicaVoxel @ Ephtracy

# group
o 

# material
mtllib Tools_Axe.mtl
usemtl palette

# normals
vn 0 0 1
vn 0 0 -1
vn 1 0 0
vn -1 0 0
vn 0 -1 0
vn 0 1 0

# texcoords
vt 0.201172 0.5
vt 0.958984 0.5
vt 0.966797 0.5

# verts
v 0.1 0 0.1
v -0.1 0 0.1
v 0.2 1.1 0.1
v 0.1 1.1 0.1
v -0.1 1.1 0.1
v -0.3 1.1 0.1
v -0.4 1.1 0.1
v 0.1 1.3 0.1
v -0.1 1.3 0.1
v 0.2 1.5 0.1
v -0.3 1.5 0.1
v -0.4 1.5 0.1
v 0.1 0 -0.1
v -0.1 0 -0.1
v 0.2 1.1 -0.1
v 0.1 1.1 -0.1
v -0.1 1.1 -0.1
v -0.3 1.1 -0.1
v -0.4 1.1 -0.1
v 0.1 1.3 -0.1
v -0.1 1.3 -0.1
v 0.2 1.5 -0.1
v -0.3 1.5 -0.1
v -0.4 1.5 -0.1
v 0.2 1.1 0.1
v 0.2 1.5 0.1
v 0.2 1.1 -0.1
v 0.2 1.5 -0.1
v 0.1 0 0.1
v 0.1 1.1 0.1
v 0.1 0 -0.1
v 0.1 1.1 -0.1
v -0.1 0 0.1
v -0.1 1.1 0.1
v -0.1 0 -0.1
v -0.1 1.1 -0.1
v -0.4 1.1 0.1
v -0.4 1.5 0.1
v -0.4 1.1 -0.1
v -0.4 1.5 -0.1
v 0.1 0 0.1
v 0.1 0 -0.1
v -0.1 0 0.1
v -0.1 0 -0.1
v 0.2 1.1 0.1
v 0.2 1.1 -0.1
v 0.1 1.1 0.1
v 0.1 1.1 -0.1
v -0.1 1.1 0.1
v -0.1 1.1 -0.1
v -0.3 1.1 0.1
v -0.3 1.1 -0.1
v -0.4 1.1 0.1
v -0.4 1.1 -0.1
v 0.2 1.5 0.1
v 0.2 1.5 -0.1
v -0.3 1.5 0.1
v -0.3 1.5 -0.1
v -0.4 1.5 0.1
v -0.4 1.5 -0.1

# faces
f 4/1/1 2/1/1 1/1/1
f 5/1/1 2/1/1 4/1/1
f 8/3/1 4/3/1 3/3/1
f 8/1/1 5/1/1 4/1/1
f 9/3/1 6/3/1 5/3/1
f 9/1/1 5/1/1 8/1/1
f 10/3/1 8/3/1 3/3/1
f 10/3/1 9/3/1 8/3/1
f 11/2/1 7/2/1 6/2/1
f 11/3/1 9/3/1 10/3/1
f 11/3/1 6/3/1 9/3/1
f 12/2/1 7/2/1 11/2/1
f 13/1/2 14/1/2 16/1/2
f 16/1/2 14/1/2 17/1/2
f 15/3/2 16/3/2 20/3/2
f 16/1/2 17/1/2 20/1/2
f 17/3/2 18/3/2 21/3/2
f 20/1/2 17/1/2 21/1/2
f 15/3/2 20/3/2 22/3/2
f 20/3/2 21/3/2 22/3/2
f 18/2/2 19/2/2 23/2/2
f 22/3/2 21/3/2 23/3/2
f 21/3/2 18/3/2 23/3/2
f 23/2/2 19/2/2 24/2/2
f 27/3/3 26/3/3 25/3/3
f 28/3/3 26/3/3 27/3/3
f 31/1/3 30/1/3 29/1/3
f 32/1/3 30/1/3 31/1/3
f 33/1/4 34/1/4 35/1/4
f 35/1/4 34/1/4 36/1/4
f 37/2/4 38/2/4 39/2/4
f 39/2/4 38/2/4 40/2/4
f 43/1/5 42/1/5 41/1/5
f 44/1/5 42/1/5 43/1/5
f 47/3/5 46/3/5 45/3/5
f 48/3/5 46/3/5 47/3/5
f 51/3/5 50/3/5 49/3/5
f 52/3/5 50/3/5 51/3/5
f 53/2/5 52/2/5 51/2/5
f 54/2/5 52/2/5 53/2/5
f 55/3/6 56/3/6 57/3/6
f 57/3/6 56/3/6 58/3/6
f 57/2/6 58/2/6 59/2/6
f 59/2/6 58/2/6 60/2/6
