# MagicaVoxel @ Ephtracy

# group
o 

# material
mtllib Obstacles_Rock.mtl
usemtl palette

# normals
vn -1 0 0
vn 1 0 0
vn 0 0 1
vn 0 0 -1
vn 0 -1 0
vn 0 1 0

# texcoords
vt 0.982422 0.5
vt 0.986328 0.5
vt 0.990234 0.5

# verts
v -1.5 0 1.5
v -1.5 0 0.7
v -1.5 0.3 0.9
v -1.5 0.3 0.8
v -1.5 0.4 0.9
v -1.5 0.4 0.8
v -1.5 0.6 1.2
v -1.5 0.6 1.1
v -1.5 0.7 1.2
v -1.5 0.7 1.1
v -1.5 0.8 1.5
v -1.5 0.8 0.7
v -1.4 0 0.7
v -1.4 0 0.3
v -1.4 0.2 0.7
v -1.4 0.2 0.6
v -1.4 0.3 0.7
v -1.4 0.3 0.6
v -1.4 0.4 0.7
v -1.4 0.4 0.3
v -1.3 0 0.3
v -1.3 0 0.2
v -1.3 0.1 0.3
v -1.3 0.1 0.2
v -1.3 0.2 0.3
v -1.3 0.2 0.2
v -1.1 0.4 0.7
v -1.1 0.4 0.4
v -1.1 0.8 1.1
v -1.1 0.8 0.7
v -1.1 0.9 0.5
v -1.1 0.9 0.4
v -1.1 1 1
v -1.1 1 0.9
v -1.1 1 0.5
v -1.1 1 0.4
v -1.1 1.1 1
v -1.1 1.1 0.9
v -1.1 1.4 1.1
v -1.1 1.4 0.4
v -0.8 0 0.3
v -0.8 0 0.1
v -0.8 0.4 0.3
v -0.8 0.4 0.1
v -1 0 0.3
v -1 0 0.2
v -1 0.2 0.3
v -1 0.2 0.2
v -0.7 0 1.5
v -0.7 0 1.4
v -0.7 0.2 1.4
v -0.7 0.2 1.3
v -0.7 0.3 1.3
v -0.7 0.3 1.1
v -0.7 0.5 1.4
v -0.7 0.5 1.3
v -0.7 0.6 1.4
v -0.7 0.6 1.3
v -0.7 0.8 1.5
v -0.7 0.8 1.1
v -0.5 0.2 1.3
v -0.5 0.2 1.1
v -0.5 0.3 1.3
v -0.5 0.3 1.1
v -0.4 0.2 1.1
v -0.4 0.2 1
v -0.4 0.2 0.8
v -0.4 0.2 0.7
v -0.4 0.3 1
v -0.4 0.3 0.8
v -0.4 0.4 0.7
v -0.4 0.4 0.4
v -0.4 0.6 1
v -0.4 0.6 0.9
v -0.4 0.7 1
v -0.4 0.7 0.9
v -0.4 0.8 0.8
v -0.4 0.8 0.7
v -0.4 0.9 0.8
v -0.4 0.9 0.7
v -0.4 1.4 1.1
v -0.4 1.4 0.4
v -0.3 0.2 1
v -0.3 0.2 0.8
v -0.3 0.3 1
v -0.3 0.3 0.8
v -0.2 0 1.4
v -0.2 0 0.7
v -0.2 0.1 1.3
v -0.2 0.1 1.2
v -0.2 0.2 1.4
v -0.2 0.2 1.3
v -0.2 0.2 1.2
v -0.2 0.2 0.7
v -0.1 0 0.7
v -0.1 0 0.1
v -0.1 0.2 0.5
v -0.1 0.2 0.4
v -0.1 0.3 0.5
v -0.1 0.3 0.4
v -0.1 0.4 0.7
v -0.1 0.4 0.1
v -1.5 0 1.5
v -1.5 0.8 1.5
v -1.4 0.4 1.5
v -1.4 0.5 1.5
v -1.3 0.4 1.5
v -1.3 0.5 1.5
v -1.1 0.3 1.5
v -1.1 0.4 1.5
v -1 0.3 1.5
v -1 0.4 1.5
v -1 0.7 1.5
v -1 0.8 1.5
v -0.9 0.7 1.5
v -0.9 0.8 1.5
v -0.7 0 1.5
v -0.7 0.8 1.5
v -0.7 0 1.4
v -0.7 0.2 1.4
v -0.2 0 1.4
v -0.2 0.2 1.4
v -0.7 0.2 1.3
v -0.7 0.3 1.3
v -0.5 0.2 1.3
v -0.5 0.3 1.3
v -1.1 0.8 1.1
v -1.1 1.4 1.1
v -0.8 1.1 1.1
v -0.8 1.2 1.1
v -0.7 0.3 1.1
v -0.7 0.8 1.1
v -0.7 1.1 1.1
v -0.7 1.2 1.1
v -0.5 0.2 1.1
v -0.5 0.3 1.1
v -0.4 0.2 1.1
v -0.4 1.4 1.1
v -0.4 0.2 1
v -0.4 0.3 1
v -0.3 0.2 1
v -0.3 0.3 1
v -0.4 0.2 0.7
v -0.4 0.4 0.7
v -0.2 0 0.7
v -0.2 0.2 0.7
v -0.1 0 0.7
v -0.1 0.4 0.7
v -0.4 0.2 0.8
v -0.4 0.3 0.8
v -0.3 0.2 0.8
v -0.3 0.3 0.8
v -1.5 0 0.7
v -1.5 0.8 0.7
v -1.4 0 0.7
v -1.4 0.2 0.7
v -1.4 0.3 0.7
v -1.4 0.4 0.7
v -1.1 0.4 0.7
v -1.1 0.8 0.7
v -1.1 0.4 0.4
v -1.1 0.9 0.4
v -1.1 1 0.4
v -1.1 1.4 0.4
v -1 0.4 0.4
v -1 0.9 0.4
v -1 1 0.4
v -0.8 1 0.4
v -0.8 1.1 0.4
v -0.7 1 0.4
v -0.7 1.1 0.4
v -0.4 0.4 0.4
v -0.4 1.4 0.4
v -1.4 0 0.3
v -1.4 0.4 0.3
v -1.3 0 0.3
v -1.3 0.1 0.3
v -1.3 0.2 0.3
v -1.2 0.2 0.3
v -1.1 0.3 0.3
v -1.1 0.4 0.3
v -1 0 0.3
v -1 0.2 0.3
v -1 0.3 0.3
v -1 0.4 0.3
v -0.8 0 0.3
v -0.8 0.4 0.3
v -1.3 0 0.2
v -1.3 0.1 0.2
v -1.3 0.2 0.2
v -1.2 0.1 0.2
v -1.2 0.2 0.2
v -1 0 0.2
v -1 0.2 0.2
v -0.8 0 0.1
v -0.8 0.4 0.1
v -0.7 0.1 0.1
v -0.7 0.2 0.1
v -0.6 0.1 0.1
v -0.6 0.2 0.1
v -0.3 0.1 0.1
v -0.3 0.2 0.1
v -0.2 0.1 0.1
v -0.2 0.2 0.1
v -0.1 0 0.1
v -0.1 0.4 0.1
v -1.5 0 1.5
v -0.7 0 1.5
v -0.7 0 1.4
v -0.2 0 1.4
v -1.5 0 0.7
v -1.4 0 0.7
v -0.2 0 0.7
v -0.1 0 0.7
v -1.4 0 0.3
v -1.3 0 0.3
v -1 0 0.3
v -0.8 0 0.3
v -1.3 0 0.2
v -1 0 0.2
v -0.8 0 0.1
v -0.1 0 0.1
v -0.7 0.2 1.4
v -0.2 0.2 1.4
v -0.7 0.2 1.3
v -0.5 0.2 1.3
v -0.3 0.2 1.3
v -0.2 0.2 1.3
v -0.3 0.2 1.2
v -0.2 0.2 1.2
v -0.5 0.2 1.1
v -0.4 0.2 1.1
v -0.4 0.2 1
v -0.3 0.2 1
v -0.4 0.2 0.8
v -0.3 0.2 0.8
v -0.4 0.2 0.7
v -0.2 0.2 0.7
v -1.3 0.2 0.3
v -1.2 0.2 0.3
v -1 0.2 0.3
v -1.3 0.2 0.2
v -1.2 0.2 0.2
v -1 0.2 0.2
v -0.7 0.3 1.3
v -0.5 0.3 1.3
v -0.7 0.3 1.1
v -0.5 0.3 1.1
v -0.4 0.3 1
v -0.3 0.3 1
v -0.4 0.3 0.8
v -0.3 0.3 0.8
v -1.4 0.4 0.7
v -1.1 0.4 0.7
v -0.4 0.4 0.7
v -0.1 0.4 0.7
v -1.1 0.4 0.4
v -1 0.4 0.4
v -0.4 0.4 0.4
v -1.4 0.4 0.3
v -1.1 0.4 0.3
v -1 0.4 0.3
v -0.8 0.4 0.3
v -0.5 0.4 0.3
v -0.4 0.4 0.3
v -0.5 0.4 0.2
v -0.4 0.4 0.2
v -0.8 0.4 0.1
v -0.1 0.4 0.1
v -1.5 0.8 1.5
v -1 0.8 1.5
v -0.9 0.8 1.5
v -0.7 0.8 1.5
v -1.3 0.8 1.4
v -1.2 0.8 1.4
v -1 0.8 1.4
v -0.9 0.8 1.4
v -1.3 0.8 1.3
v -1.2 0.8 1.3
v -1.1 0.8 1.1
v -0.7 0.8 1.1
v -1.5 0.8 0.7
v -1.1 0.8 0.7
v -1.1 1.4 1.1
v -0.4 1.4 1.1
v -0.8 1.4 1
v -0.7 1.4 1
v -0.8 1.4 0.9
v -0.7 1.4 0.9
v -0.7 1.4 0.6
v -0.6 1.4 0.6
v -0.7 1.4 0.5
v -0.6 1.4 0.5
v -1.1 1.4 0.4
v -0.4 1.4 0.4

# faces
f 3/2/1 2/2/1 1/2/1
f 4/2/1 2/2/1 3/2/1
f 5/2/1 3/2/1 1/2/1
f 5/3/1 4/3/1 3/3/1
f 6/2/1 2/2/1 4/2/1
f 6/3/1 4/3/1 5/3/1
f 7/2/1 5/2/1 1/2/1
f 7/2/1 6/2/1 5/2/1
f 8/2/1 6/2/1 7/2/1
f 9/2/1 7/2/1 1/2/1
f 9/1/1 8/1/1 7/1/1
f 10/2/1 6/2/1 8/2/1
f 10/1/1 8/1/1 9/1/1
f 11/2/1 9/2/1 1/2/1
f 11/2/1 10/2/1 9/2/1
f 12/2/1 2/2/1 6/2/1
f 12/2/1 10/2/1 11/2/1
f 12/2/1 6/2/1 10/2/1
f 15/2/1 14/2/1 13/2/1
f 16/2/1 14/2/1 15/2/1
f 17/1/1 16/1/1 15/1/1
f 18/2/1 14/2/1 16/2/1
f 18/1/1 16/1/1 17/1/1
f 19/2/1 18/2/1 17/2/1
f 20/2/1 14/2/1 18/2/1
f 20/2/1 18/2/1 19/2/1
f 23/2/1 22/2/1 21/2/1
f 24/2/1 22/2/1 23/2/1
f 25/1/1 24/1/1 23/1/1
f 26/1/1 24/1/1 25/1/1
f 30/2/1 28/2/1 27/2/1
f 31/2/1 28/2/1 30/2/1
f 31/2/1 30/2/1 29/2/1
f 32/2/1 28/2/1 31/2/1
f 33/2/1 31/2/1 29/2/1
f 34/2/1 31/2/1 33/2/1
f 35/3/1 32/3/1 31/3/1
f 35/2/1 31/2/1 34/2/1
f 36/3/1 32/3/1 35/3/1
f 37/1/1 34/1/1 33/1/1
f 37/2/1 33/2/1 29/2/1
f 38/2/1 36/2/1 35/2/1
f 38/1/1 34/1/1 37/1/1
f 38/2/1 35/2/1 34/2/1
f 39/2/1 37/2/1 29/2/1
f 39/2/1 38/2/1 37/2/1
f 40/2/1 36/2/1 38/2/1
f 40/2/1 38/2/1 39/2/1
f 43/2/1 42/2/1 41/2/1
f 44/2/1 42/2/1 43/2/1
f 45/2/2 46/2/2 47/2/2
f 47/2/2 46/2/2 48/2/2
f 49/2/2 50/2/2 51/2/2
f 51/2/2 52/2/2 53/2/2
f 49/2/2 51/2/2 55/2/2
f 53/2/2 54/2/2 55/2/2
f 51/2/2 53/2/2 55/2/2
f 55/2/2 54/2/2 56/2/2
f 49/2/2 55/2/2 57/2/2
f 55/1/2 56/1/2 57/1/2
f 56/2/2 54/2/2 58/2/2
f 57/1/2 56/1/2 58/1/2
f 49/2/2 57/2/2 59/2/2
f 57/2/2 58/2/2 59/2/2
f 58/2/2 54/2/2 60/2/2
f 59/2/2 58/2/2 60/2/2
f 61/2/2 62/2/2 63/2/2
f 63/2/2 62/2/2 64/2/2
f 65/2/2 66/2/2 69/2/2
f 67/2/2 68/2/2 70/2/2
f 70/2/2 68/2/2 71/2/2
f 69/2/2 70/2/2 71/2/2
f 65/2/2 69/2/2 73/2/2
f 71/2/2 72/2/2 73/2/2
f 69/2/2 71/2/2 73/2/2
f 73/2/2 72/2/2 74/2/2
f 65/2/2 73/2/2 75/2/2
f 73/3/2 74/3/2 75/3/2
f 74/2/2 72/2/2 76/2/2
f 75/3/2 74/3/2 76/3/2
f 75/2/2 76/2/2 77/2/2
f 76/2/2 72/2/2 77/2/2
f 77/2/2 72/2/2 78/2/2
f 75/2/2 77/2/2 79/2/2
f 77/1/2 78/1/2 79/1/2
f 78/2/2 72/2/2 80/2/2
f 79/1/2 78/1/2 80/1/2
f 65/2/2 75/2/2 81/2/2
f 75/2/2 79/2/2 81/2/2
f 79/2/2 80/2/2 81/2/2
f 80/2/2 72/2/2 82/2/2
f 81/2/2 80/2/2 82/2/2
f 83/2/2 84/2/2 85/2/2
f 85/2/2 84/2/2 86/2/2
f 87/2/2 88/2/2 89/2/2
f 89/2/2 88/2/2 90/2/2
f 87/2/2 89/2/2 91/2/2
f 89/1/2 90/1/2 92/1/2
f 91/2/2 89/2/2 92/2/2
f 90/2/2 88/2/2 93/2/2
f 92/1/2 90/1/2 93/1/2
f 93/2/2 88/2/2 94/2/2
f 95/2/2 96/2/2 97/2/2
f 97/2/2 96/2/2 98/2/2
f 95/2/2 97/2/2 99/2/2
f 97/3/2 98/3/2 99/3/2
f 98/2/2 96/2/2 100/2/2
f 99/3/2 98/3/2 100/3/2
f 95/2/2 99/2/2 101/2/2
f 99/2/2 100/2/2 101/2/2
f 100/2/2 96/2/2 102/2/2
f 101/2/2 100/2/2 102/2/2
f 105/2/3 104/2/3 103/2/3
f 106/2/3 104/2/3 105/2/3
f 107/2/3 105/2/3 103/2/3
f 107/1/3 106/1/3 105/1/3
f 108/2/3 104/2/3 106/2/3
f 108/1/3 106/1/3 107/1/3
f 109/2/3 107/2/3 103/2/3
f 109/2/3 108/2/3 107/2/3
f 110/2/3 108/2/3 109/2/3
f 111/2/3 109/2/3 103/2/3
f 111/3/3 110/3/3 109/3/3
f 112/2/3 108/2/3 110/2/3
f 112/3/3 110/3/3 111/3/3
f 113/2/3 104/2/3 108/2/3
f 113/2/3 108/2/3 112/2/3
f 114/2/3 104/2/3 113/2/3
f 115/2/3 112/2/3 111/2/3
f 115/2/3 113/2/3 112/2/3
f 115/1/3 114/1/3 113/1/3
f 116/1/3 114/1/3 115/1/3
f 117/2/3 111/2/3 103/2/3
f 117/2/3 115/2/3 111/2/3
f 117/2/3 116/2/3 115/2/3
f 118/2/3 116/2/3 117/2/3
f 121/2/3 120/2/3 119/2/3
f 122/2/3 120/2/3 121/2/3
f 125/2/3 124/2/3 123/2/3
f 126/2/3 124/2/3 125/2/3
f 129/2/3 128/2/3 127/2/3
f 130/2/3 128/2/3 129/2/3
f 132/2/3 129/2/3 127/2/3
f 133/3/3 130/3/3 129/3/3
f 133/2/3 129/2/3 132/2/3
f 134/2/3 128/2/3 130/2/3
f 134/3/3 130/3/3 133/3/3
f 136/2/3 133/2/3 132/2/3
f 136/2/3 132/2/3 131/2/3
f 136/2/3 134/2/3 133/2/3
f 137/2/3 136/2/3 135/2/3
f 138/2/3 128/2/3 134/2/3
f 138/2/3 136/2/3 137/2/3
f 138/2/3 134/2/3 136/2/3
f 141/2/3 140/2/3 139/2/3
f 142/2/3 140/2/3 141/2/3
f 146/2/3 144/2/3 143/2/3
f 147/2/3 146/2/3 145/2/3
f 148/2/3 144/2/3 146/2/3
f 148/2/3 146/2/3 147/2/3
f 149/2/4 150/2/4 151/2/4
f 151/2/4 150/2/4 152/2/4
f 153/2/4 154/2/4 155/2/4
f 155/2/4 154/2/4 156/2/4
f 156/2/4 154/2/4 157/2/4
f 157/2/4 154/2/4 158/2/4
f 158/2/4 154/2/4 159/2/4
f 159/2/4 154/2/4 160/2/4
f 161/2/4 162/2/4 165/2/4
f 162/3/4 163/3/4 166/3/4
f 165/2/4 162/2/4 166/2/4
f 163/2/4 164/2/4 167/2/4
f 166/3/4 163/3/4 167/3/4
f 165/2/4 166/2/4 168/2/4
f 167/2/4 164/2/4 168/2/4
f 166/2/4 167/2/4 168/2/4
f 168/2/4 164/2/4 169/2/4
f 165/2/4 168/2/4 170/2/4
f 168/1/4 169/1/4 170/1/4
f 169/2/4 164/2/4 171/2/4
f 170/1/4 169/1/4 171/1/4
f 165/2/4 170/2/4 172/2/4
f 170/2/4 171/2/4 172/2/4
f 171/2/4 164/2/4 173/2/4
f 172/2/4 171/2/4 173/2/4
f 174/2/4 175/2/4 176/2/4
f 176/2/4 175/2/4 177/2/4
f 177/2/4 175/2/4 178/2/4
f 178/2/4 175/2/4 179/2/4
f 179/2/4 175/2/4 180/2/4
f 180/2/4 175/2/4 181/2/4
f 179/2/4 180/2/4 183/2/4
f 180/3/4 181/3/4 184/3/4
f 183/2/4 180/2/4 184/2/4
f 184/3/4 181/3/4 185/3/4
f 182/2/4 183/2/4 186/2/4
f 183/2/4 184/2/4 186/2/4
f 184/2/4 185/2/4 186/2/4
f 186/2/4 185/2/4 187/2/4
f 188/2/4 189/2/4 191/2/4
f 189/1/4 190/1/4 191/1/4
f 191/1/4 190/1/4 192/1/4
f 188/2/4 191/2/4 193/2/4
f 191/2/4 192/2/4 193/2/4
f 193/2/4 192/2/4 194/2/4
f 195/2/4 196/2/4 197/2/4
f 197/2/4 196/2/4 198/2/4
f 195/2/4 197/2/4 199/2/4
f 197/3/4 198/3/4 199/3/4
f 198/2/4 196/2/4 200/2/4
f 199/3/4 198/3/4 200/3/4
f 195/2/4 199/2/4 201/2/4
f 199/2/4 200/2/4 201/2/4
f 200/2/4 196/2/4 202/2/4
f 201/2/4 200/2/4 202/2/4
f 195/2/4 201/2/4 203/2/4
f 201/1/4 202/1/4 203/1/4
f 202/2/4 196/2/4 204/2/4
f 203/1/4 202/1/4 204/1/4
f 195/2/4 203/2/4 205/2/4
f 203/2/4 204/2/4 205/2/4
f 204/2/4 196/2/4 206/2/4
f 205/2/4 204/2/4 206/2/4
f 209/2/5 208/2/5 207/2/5
f 211/2/5 209/2/5 207/2/5
f 211/2/5 210/2/5 209/2/5
f 212/2/5 210/2/5 211/2/5
f 213/2/5 210/2/5 212/2/5
f 215/2/5 214/2/5 213/2/5
f 215/2/5 213/2/5 212/2/5
f 216/2/5 214/2/5 215/2/5
f 217/2/5 214/2/5 216/2/5
f 218/2/5 214/2/5 217/2/5
f 219/2/5 217/2/5 216/2/5
f 220/2/5 217/2/5 219/2/5
f 221/2/5 214/2/5 218/2/5
f 222/2/5 214/2/5 221/2/5
f 223/2/6 224/2/6 225/2/6
f 225/2/6 224/2/6 226/2/6
f 226/2/6 224/2/6 227/2/6
f 227/2/6 224/2/6 228/2/6
f 226/2/6 227/2/6 229/2/6
f 227/1/6 228/1/6 229/1/6
f 229/1/6 228/1/6 230/1/6
f 226/2/6 229/2/6 231/2/6
f 229/2/6 230/2/6 231/2/6
f 231/2/6 230/2/6 232/2/6
f 232/2/6 230/2/6 233/2/6
f 233/2/6 230/2/6 234/2/6
f 234/2/6 230/2/6 236/2/6
f 235/2/6 236/2/6 237/2/6
f 236/2/6 230/2/6 238/2/6
f 237/2/6 236/2/6 238/2/6
f 239/1/6 240/1/6 242/1/6
f 240/2/6 241/2/6 243/2/6
f 242/1/6 240/1/6 243/1/6
f 243/2/6 241/2/6 244/2/6
f 245/2/6 246/2/6 247/2/6
f 247/2/6 246/2/6 248/2/6
f 249/2/6 250/2/6 251/2/6
f 251/2/6 250/2/6 252/2/6
f 253/2/6 254/2/6 257/2/6
f 255/2/6 256/2/6 259/2/6
f 253/2/6 257/2/6 260/2/6
f 257/3/6 258/3/6 261/3/6
f 260/2/6 257/2/6 261/2/6
f 258/2/6 259/2/6 262/2/6
f 261/3/6 258/3/6 262/3/6
f 262/2/6 259/2/6 263/2/6
f 263/2/6 259/2/6 264/2/6
f 259/2/6 256/2/6 265/2/6
f 264/2/6 259/2/6 265/2/6
f 263/2/6 264/2/6 266/2/6
f 264/1/6 265/1/6 266/1/6
f 265/2/6 256/2/6 267/2/6
f 266/1/6 265/1/6 267/1/6
f 263/2/6 266/2/6 268/2/6
f 266/2/6 267/2/6 268/2/6
f 267/2/6 256/2/6 269/2/6
f 268/2/6 267/2/6 269/2/6
f 270/2/6 271/2/6 274/2/6
f 274/2/6 271/2/6 275/2/6
f 271/1/6 272/1/6 276/1/6
f 275/2/6 271/2/6 276/2/6
f 272/2/6 273/2/6 277/2/6
f 276/1/6 272/1/6 277/1/6
f 274/3/6 275/3/6 278/3/6
f 270/2/6 274/2/6 278/2/6
f 275/2/6 276/2/6 279/2/6
f 278/3/6 275/3/6 279/3/6
f 276/2/6 277/2/6 279/2/6
f 278/2/6 279/2/6 280/2/6
f 279/2/6 277/2/6 280/2/6
f 277/2/6 273/2/6 281/2/6
f 280/2/6 277/2/6 281/2/6
f 270/2/6 278/2/6 282/2/6
f 278/2/6 280/2/6 282/2/6
f 282/2/6 280/2/6 283/2/6
f 284/2/6 285/2/6 286/2/6
f 286/2/6 285/2/6 287/2/6
f 284/2/6 286/2/6 288/2/6
f 286/1/6 287/1/6 288/1/6
f 287/2/6 285/2/6 289/2/6
f 288/1/6 287/1/6 289/1/6
f 288/2/6 289/2/6 290/2/6
f 289/2/6 285/2/6 290/2/6
f 290/2/6 285/2/6 291/2/6
f 288/2/6 290/2/6 292/2/6
f 290/3/6 291/3/6 292/3/6
f 291/2/6 285/2/6 293/2/6
f 292/3/6 291/3/6 293/3/6
f 284/2/6 288/2/6 294/2/6
f 288/2/6 292/2/6 294/2/6
f 292/2/6 293/2/6 294/2/6
f 293/2/6 285/2/6 295/2/6
f 294/2/6 293/2/6 295/2/6
