# MagicaVoxel @ Ephtracy

# group
o 

# material
mtllib Chr_Brown.mtl
usemtl palette

# normals
vn -1 0 0
vn 1 0 0
vn 0 0 1
vn 0 0 -1
vn 0 -1 0
vn 0 1 0

# texcoords
vt 0.396484 0.5
vt 0.537109 0.5
vt 0.634766 0.5
vt 0.955078 0.5
vt 0.958984 0.5
vt 0.994141 0.5

# verts
v 0.4 1.5 -1
v 0.4 1.5 -1.1
v 0.4 1.6 -1
v 0.4 1.6 -1.1
v 0.6 1.7 -0.9
v 0.6 1.7 -1.2
v 0.6 2.1 -0.9
v 0.6 2.1 -1.2
v 0.7 1.8 -0.8
v 0.7 1.8 -0.9
v 0.7 1.8 -1.2
v 0.7 1.8 -1.3
v 0.7 1.9 -0.8
v 0.7 1.9 -0.9
v 0.7 2 -0.8
v 0.7 2 -0.9
v 0.7 2.1 -0.9
v 0.7 2.1 -1.2
v 0.7 2.1 -1.3
v 0.7 2.2 -0.9
v 0.7 2.2 -1.2
v 0.8 1 -1
v 0.8 1 -1.1
v 0.8 1.1 -1
v 0.8 1.1 -1.1
v 0.8 1.2 -0.9
v 0.8 1.2 -1
v 0.8 1.2 -1.1
v 0.8 1.2 -1.2
v 0.8 1.5 -1
v 0.8 1.5 -1.1
v 0.8 1.6 -0.9
v 0.8 1.6 -1
v 0.8 1.6 -1.1
v 0.8 1.6 -1.2
v 0.8 1.7 -0.6
v 0.8 1.7 -0.8
v 0.8 1.7 -1.3
v 0.8 1.8 -0.8
v 0.8 1.8 -1.3
v 0.8 1.9 -0.6
v 0.8 1.9 -0.8
v 0.8 1.9 -1.3
v 0.8 1.9 -1.4
v 0.8 2 -0.8
v 0.8 2 -0.9
v 0.8 2.1 -0.8
v 0.8 2.1 -0.9
v 0.8 2.1 -1.2
v 0.8 2.1 -1.3
v 0.8 2.1 -1.4
v 0.8 2.2 -0.9
v 0.8 2.2 -1.2
v 0.8 2.2 -1.3
v 0.8 2.3 -0.9
v 0.8 2.3 -1.2
v 0.9 1.2 -1.2
v 0.9 1.2 -1.3
v 0.9 1.2 -1.4
v 0.9 1.3 -1.2
v 0.9 1.3 -1.3
v 0.9 1.3 -1.4
v 0.9 1.6 -1
v 0.9 1.6 -1.1
v 0.9 1.7 -1
v 0.9 1.7 -1.1
v 0.9 1.8 -0.5
v 0.9 1.8 -0.6
v 0.9 1.8 -1.3
v 0.9 1.8 -1.4
v 0.9 1.9 -0.5
v 0.9 1.9 -0.6
v 0.9 1.9 -1.3
v 0.9 1.9 -1.4
v 0.9 2.1 -0.8
v 0.9 2.1 -0.9
v 0.9 2.2 -0.8
v 0.9 2.2 -0.9
v 1.1 1 -1
v 1.1 1 -1.1
v 1.1 1.1 -1
v 1.1 1.1 -1.1
v 1.1 1.2 -1
v 1.1 1.2 -1.1
v 1.3 1.7 -1
v 1.3 1.7 -1.3
v 1.3 1.8 -1
v 1.3 1.8 -1.3
v 0.7 1.7 -0.9
v 0.7 1.7 -1.2
v 0.7 1.8 -0.9
v 0.7 1.8 -1.2
v 0.9 1 -1
v 0.9 1 -1.1
v 0.9 1.1 -1
v 0.9 1.1 -1.1
v 0.9 1.2 -1
v 0.9 1.2 -1.1
v 1.1 1.2 -1.2
v 1.1 1.2 -1.3
v 1.1 1.2 -1.4
v 1.1 1.3 -1.2
v 1.1 1.3 -1.3
v 1.1 1.3 -1.4
v 1.1 1.6 -1
v 1.1 1.6 -1.1
v 1.1 1.7 -1
v 1.1 1.7 -1.1
v 1.1 1.8 -0.5
v 1.1 1.8 -0.6
v 1.1 1.8 -1.3
v 1.1 1.8 -1.4
v 1.1 1.9 -0.5
v 1.1 1.9 -0.6
v 1.1 1.9 -1.3
v 1.1 1.9 -1.4
v 1.1 2.1 -0.8
v 1.1 2.1 -0.9
v 1.1 2.2 -0.8
v 1.1 2.2 -0.9
v 1.2 1 -1
v 1.2 1 -1.1
v 1.2 1.1 -1
v 1.2 1.1 -1.1
v 1.2 1.2 -0.9
v 1.2 1.2 -1
v 1.2 1.2 -1.1
v 1.2 1.2 -1.2
v 1.2 1.5 -1
v 1.2 1.5 -1.1
v 1.2 1.6 -0.9
v 1.2 1.6 -1
v 1.2 1.6 -1.1
v 1.2 1.6 -1.2
v 1.2 1.7 -0.6
v 1.2 1.7 -0.8
v 1.2 1.7 -1.3
v 1.2 1.8 -0.8
v 1.2 1.8 -1.3
v 1.2 1.9 -0.6
v 1.2 1.9 -0.8
v 1.2 1.9 -1.3
v 1.2 1.9 -1.4
v 1.2 2 -0.8
v 1.2 2 -0.9
v 1.2 2.1 -0.8
v 1.2 2.1 -0.9
v 1.2 2.1 -1.2
v 1.2 2.1 -1.3
v 1.2 2.1 -1.4
v 1.2 2.2 -0.9
v 1.2 2.2 -1.2
v 1.2 2.2 -1.3
v 1.2 2.3 -0.9
v 1.2 2.3 -1.2
v 1.3 1.8 -0.8
v 1.3 1.8 -1
v 1.3 1.9 -0.8
v 1.3 1.9 -0.9
v 1.3 2 -0.8
v 1.3 2 -0.9
v 1.3 2.1 -1
v 1.3 2.1 -1.2
v 1.3 2.2 -0.9
v 1.3 2.2 -1.2
v 1.4 1.7 -1
v 1.4 1.7 -1.3
v 1.4 2.1 -1
v 1.4 2.1 -1.3
v 1.6 1.5 -1
v 1.6 1.5 -1.1
v 1.6 1.6 -1
v 1.6 1.6 -1.1
v 0.9 1.8 -0.5
v 0.9 1.9 -0.5
v 1.1 1.8 -0.5
v 1.1 1.9 -0.5
v 0.8 1.7 -0.6
v 0.8 1.9 -0.6
v 0.9 1.8 -0.6
v 0.9 1.9 -0.6
v 1.1 1.8 -0.6
v 1.1 1.9 -0.6
v 1.2 1.7 -0.6
v 1.2 1.9 -0.6
v 0.7 1.8 -0.8
v 0.7 1.9 -0.8
v 0.7 2 -0.8
v 0.8 1.8 -0.8
v 0.8 1.9 -0.8
v 0.8 2 -0.8
v 0.8 2.1 -0.8
v 0.9 2 -0.8
v 0.9 2.1 -0.8
v 0.9 2.2 -0.8
v 1.1 2 -0.8
v 1.1 2.1 -0.8
v 1.1 2.2 -0.8
v 1.2 1.8 -0.8
v 1.2 1.9 -0.8
v 1.2 2 -0.8
v 1.2 2.1 -0.8
v 1.3 1.8 -0.8
v 1.3 1.9 -0.8
v 1.3 2 -0.8
v 0.6 1.7 -0.9
v 0.6 2.1 -0.9
v 0.7 1.7 -0.9
v 0.7 1.8 -0.9
v 0.7 1.9 -0.9
v 0.7 2 -0.9
v 0.7 2.1 -0.9
v 0.7 2.2 -0.9
v 0.8 1.2 -0.9
v 0.8 1.6 -0.9
v 0.8 2 -0.9
v 0.8 2.1 -0.9
v 0.8 2.2 -0.9
v 0.8 2.3 -0.9
v 0.9 1.2 -0.9
v 0.9 1.5 -0.9
v 0.9 2.1 -0.9
v 0.9 2.2 -0.9
v 1.1 1.2 -0.9
v 1.1 1.5 -0.9
v 1.1 2.1 -0.9
v 1.1 2.2 -0.9
v 1.2 1.2 -0.9
v 1.2 1.6 -0.9
v 1.2 2 -0.9
v 1.2 2.1 -0.9
v 1.2 2.2 -0.9
v 1.2 2.3 -0.9
v 1.3 2 -0.9
v 1.3 2.2 -0.9
v 0.4 1.5 -1
v 0.4 1.6 -1
v 0.5 1.5 -1
v 0.5 1.6 -1
v 0.8 1 -1
v 0.8 1.1 -1
v 0.8 1.2 -1
v 0.8 1.5 -1
v 0.8 1.6 -1
v 0.9 1 -1
v 0.9 1.1 -1
v 0.9 1.2 -1
v 0.9 1.6 -1
v 0.9 1.7 -1
v 1.1 1 -1
v 1.1 1.1 -1
v 1.1 1.2 -1
v 1.1 1.6 -1
v 1.1 1.7 -1
v 1.2 1 -1
v 1.2 1.1 -1
v 1.2 1.2 -1
v 1.2 1.5 -1
v 1.2 1.6 -1
v 1.3 1.7 -1
v 1.3 1.8 -1
v 1.3 2.1 -1
v 1.4 1.7 -1
v 1.4 2.1 -1
v 1.5 1.5 -1
v 1.5 1.6 -1
v 1.6 1.5 -1
v 1.6 1.6 -1
v 0.4 1.5 -1.1
v 0.4 1.6 -1.1
v 0.5 1.5 -1.1
v 0.5 1.6 -1.1
v 0.8 1 -1.1
v 0.8 1.1 -1.1
v 0.8 1.2 -1.1
v 0.8 1.5 -1.1
v 0.8 1.6 -1.1
v 0.9 1 -1.1
v 0.9 1.1 -1.1
v 0.9 1.2 -1.1
v 0.9 1.6 -1.1
v 0.9 1.7 -1.1
v 1.1 1 -1.1
v 1.1 1.1 -1.1
v 1.1 1.2 -1.1
v 1.1 1.6 -1.1
v 1.1 1.7 -1.1
v 1.2 1 -1.1
v 1.2 1.1 -1.1
v 1.2 1.2 -1.1
v 1.2 1.5 -1.1
v 1.2 1.6 -1.1
v 1.5 1.5 -1.1
v 1.5 1.6 -1.1
v 1.6 1.5 -1.1
v 1.6 1.6 -1.1
v 0.6 1.7 -1.2
v 0.6 2.1 -1.2
v 0.7 1.7 -1.2
v 0.7 1.8 -1.2
v 0.7 2.1 -1.2
v 0.7 2.2 -1.2
v 0.8 1.2 -1.2
v 0.8 1.6 -1.2
v 0.8 2.1 -1.2
v 0.8 2.2 -1.2
v 0.8 2.3 -1.2
v 0.9 1.2 -1.2
v 0.9 1.3 -1.2
v 1.1 1.2 -1.2
v 1.1 1.3 -1.2
v 1.2 1.2 -1.2
v 1.2 1.6 -1.2
v 1.2 2.1 -1.2
v 1.2 2.2 -1.2
v 1.2 2.3 -1.2
v 1.3 2.1 -1.2
v 1.3 2.2 -1.2
v 0.7 1.8 -1.3
v 0.7 2.1 -1.3
v 0.8 1.7 -1.3
v 0.8 1.8 -1.3
v 0.8 1.9 -1.3
v 0.8 2.1 -1.3
v 0.8 2.2 -1.3
v 0.9 1.8 -1.3
v 0.9 1.9 -1.3
v 1.1 1.8 -1.3
v 1.1 1.9 -1.3
v 1.2 1.7 -1.3
v 1.2 1.8 -1.3
v 1.2 1.9 -1.3
v 1.2 2.1 -1.3
v 1.2 2.2 -1.3
v 1.3 1.7 -1.3
v 1.3 1.8 -1.3
v 1.3 2.1 -1.3
v 1.4 1.7 -1.3
v 1.4 2.1 -1.3
v 0.8 1.9 -1.4
v 0.8 2.1 -1.4
v 0.9 1.2 -1.4
v 0.9 1.3 -1.4
v 0.9 1.8 -1.4
v 0.9 1.9 -1.4
v 1.1 1.2 -1.4
v 1.1 1.3 -1.4
v 1.1 1.8 -1.4
v 1.1 1.9 -1.4
v 1.2 1.9 -1.4
v 1.2 2.1 -1.4
v 0.8 1 -1
v 0.9 1 -1
v 1.1 1 -1
v 1.2 1 -1
v 0.8 1 -1.1
v 0.9 1 -1.1
v 1.1 1 -1.1
v 1.2 1 -1.1
v 0.8 1.2 -0.9
v 0.9 1.2 -0.9
v 1.1 1.2 -0.9
v 1.2 1.2 -0.9
v 0.8 1.2 -1
v 0.9 1.2 -1
v 1.1 1.2 -1
v 1.2 1.2 -1
v 0.8 1.2 -1.1
v 0.9 1.2 -1.1
v 1.1 1.2 -1.1
v 1.2 1.2 -1.1
v 0.8 1.2 -1.2
v 0.9 1.2 -1.2
v 1.1 1.2 -1.2
v 1.2 1.2 -1.2
v 0.9 1.2 -1.3
v 1.1 1.2 -1.3
v 0.9 1.2 -1.4
v 1.1 1.2 -1.4
v 0.4 1.5 -1
v 0.5 1.5 -1
v 0.8 1.5 -1
v 1.2 1.5 -1
v 1.5 1.5 -1
v 1.6 1.5 -1
v 0.4 1.5 -1.1
v 0.5 1.5 -1.1
v 0.8 1.5 -1.1
v 1.2 1.5 -1.1
v 1.5 1.5 -1.1
v 1.6 1.5 -1.1
v 0.8 1.7 -0.6
v 1.2 1.7 -0.6
v 0.8 1.7 -0.8
v 1.2 1.7 -0.8
v 0.6 1.7 -0.9
v 0.7 1.7 -0.9
v 0.9 1.7 -1
v 1.1 1.7 -1
v 1.3 1.7 -1
v 1.4 1.7 -1
v 0.9 1.7 -1.1
v 1.1 1.7 -1.1
v 0.6 1.7 -1.2
v 0.7 1.7 -1.2
v 0.8 1.7 -1.3
v 1.2 1.7 -1.3
v 1.3 1.7 -1.3
v 1.4 1.7 -1.3
v 0.9 1.8 -0.5
v 1.1 1.8 -0.5
v 0.9 1.8 -0.6
v 1.1 1.8 -0.6
v 0.7 1.8 -0.8
v 0.8 1.8 -0.8
v 1.2 1.8 -0.8
v 1.3 1.8 -0.8
v 0.7 1.8 -0.9
v 1.3 1.8 -1
v 0.7 1.8 -1.2
v 0.7 1.8 -1.3
v 0.8 1.8 -1.3
v 0.9 1.8 -1.3
v 1.1 1.8 -1.3
v 1.2 1.8 -1.3
v 1.3 1.8 -1.3
v 0.9 1.8 -1.4
v 1.1 1.8 -1.4
v 0.8 1.9 -1.3
v 0.9 1.9 -1.3
v 1.1 1.9 -1.3
v 1.2 1.9 -1.3
v 0.8 1.9 -1.4
v 0.9 1.9 -1.4
v 1.1 1.9 -1.4
v 1.2 1.9 -1.4
v 0.9 1.3 -1.2
v 1.1 1.3 -1.2
v 0.9 1.3 -1.3
v 1.1 1.3 -1.3
v 0.9 1.3 -1.4
v 1.1 1.3 -1.4
v 0.8 1.6 -0.9
v 1.2 1.6 -0.9
v 0.4 1.6 -1
v 0.5 1.6 -1
v 0.8 1.6 -1
v 0.9 1.6 -1
v 1.1 1.6 -1
v 1.2 1.6 -1
v 1.5 1.6 -1
v 1.6 1.6 -1
v 0.4 1.6 -1.1
v 0.5 1.6 -1.1
v 0.8 1.6 -1.1
v 0.9 1.6 -1.1
v 1.1 1.6 -1.1
v 1.2 1.6 -1.1
v 1.5 1.6 -1.1
v 1.6 1.6 -1.1
v 0.8 1.6 -1.2
v 1.2 1.6 -1.2
v 0.9 1.9 -0.5
v 1.1 1.9 -0.5
v 0.8 1.9 -0.6
v 0.9 1.9 -0.6
v 1.1 1.9 -0.6
v 1.2 1.9 -0.6
v 0.8 1.9 -0.8
v 1.2 1.9 -0.8
v 0.7 2 -0.8
v 0.8 2 -0.8
v 1.2 2 -0.8
v 1.3 2 -0.8
v 0.7 2 -0.9
v 0.8 2 -0.9
v 1.2 2 -0.9
v 1.3 2 -0.9
v 0.8 2.1 -0.8
v 0.9 2.1 -0.8
v 1.1 2.1 -0.8
v 1.2 2.1 -0.8
v 0.6 2.1 -0.9
v 0.7 2.1 -0.9
v 0.8 2.1 -0.9
v 0.9 2.1 -0.9
v 1.1 2.1 -0.9
v 1.2 2.1 -0.9
v 1.3 2.1 -1
v 1.4 2.1 -1
v 0.6 2.1 -1.2
v 0.7 2.1 -1.2
v 0.8 2.1 -1.2
v 1.2 2.1 -1.2
v 1.3 2.1 -1.2
v 0.7 2.1 -1.3
v 0.8 2.1 -1.3
v 1.2 2.1 -1.3
v 1.3 2.1 -1.3
v 1.4 2.1 -1.3
v 0.8 2.1 -1.4
v 1.2 2.1 -1.4
v 0.9 2.2 -0.8
v 1.1 2.2 -0.8
v 0.7 2.2 -0.9
v 0.8 2.2 -0.9
v 0.9 2.2 -0.9
v 1.1 2.2 -0.9
v 1.2 2.2 -0.9
v 1.3 2.2 -0.9
v 0.7 2.2 -1.2
v 0.8 2.2 -1.2
v 1.2 2.2 -1.2
v 1.3 2.2 -1.2
v 0.8 2.2 -1.3
v 1.2 2.2 -1.3
v 0.8 2.3 -0.9
v 1.2 2.3 -0.9
v 0.8 2.3 -1.2
v 1.2 2.3 -1.2

# faces
f 3/5/1 2/5/1 1/5/1
f 4/5/1 2/5/1 3/5/1
f 7/5/1 6/5/1 5/5/1
f 8/5/1 6/5/1 7/5/1
f 13/1/1 10/1/1 9/1/1
f 14/1/1 10/1/1 13/1/1
f 15/4/1 14/4/1 13/4/1
f 16/4/1 14/4/1 15/4/1
f 18/1/1 12/1/1 11/1/1
f 19/1/1 12/1/1 18/1/1
f 20/1/1 18/1/1 17/1/1
f 21/1/1 18/1/1 20/1/1
f 24/5/1 23/5/1 22/5/1
f 25/5/1 23/5/1 24/5/1
f 27/1/1 25/1/1 24/1/1
f 28/1/1 25/1/1 27/1/1
f 30/1/1 28/1/1 27/1/1
f 30/1/1 29/1/1 28/1/1
f 30/1/1 27/1/1 26/1/1
f 31/1/1 29/1/1 30/1/1
f 32/1/1 30/1/1 26/1/1
f 33/1/1 30/1/1 32/1/1
f 34/1/1 29/1/1 31/1/1
f 35/1/1 29/1/1 34/1/1
f 39/5/1 37/5/1 36/5/1
f 39/1/1 38/1/1 37/1/1
f 40/1/1 38/1/1 39/1/1
f 41/5/1 39/5/1 36/5/1
f 42/5/1 39/5/1 41/5/1
f 47/1/1 46/1/1 45/1/1
f 48/1/1 46/1/1 47/1/1
f 50/1/1 44/1/1 43/1/1
f 51/1/1 44/1/1 50/1/1
f 53/1/1 50/1/1 49/1/1
f 54/1/1 50/1/1 53/1/1
f 55/1/1 53/1/1 52/1/1
f 56/1/1 53/1/1 55/1/1
f 60/1/1 58/1/1 57/1/1
f 61/2/1 59/2/1 58/2/1
f 61/1/1 58/1/1 60/1/1
f 62/2/1 59/2/1 61/2/1
f 65/1/1 64/1/1 63/1/1
f 66/1/1 64/1/1 65/1/1
f 71/4/1 68/4/1 67/4/1
f 72/4/1 68/4/1 71/4/1
f 73/1/1 70/1/1 69/1/1
f 74/1/1 70/1/1 73/1/1
f 77/1/1 76/1/1 75/1/1
f 78/1/1 76/1/1 77/1/1
f 81/5/1 80/5/1 79/5/1
f 82/5/1 80/5/1 81/5/1
f 83/1/1 82/1/1 81/1/1
f 84/1/1 82/1/1 83/1/1
f 87/5/1 86/5/1 85/5/1
f 88/5/1 86/5/1 87/5/1
f 89/5/2 90/5/2 91/5/2
f 91/5/2 90/5/2 92/5/2
f 93/5/2 94/5/2 95/5/2
f 95/5/2 94/5/2 96/5/2
f 95/1/2 96/1/2 97/1/2
f 97/1/2 96/1/2 98/1/2
f 99/1/2 100/1/2 102/1/2
f 100/2/2 101/2/2 103/2/2
f 102/1/2 100/1/2 103/1/2
f 103/2/2 101/2/2 104/2/2
f 105/1/2 106/1/2 107/1/2
f 107/1/2 106/1/2 108/1/2
f 109/4/2 110/4/2 113/4/2
f 113/4/2 110/4/2 114/4/2
f 111/1/2 112/1/2 115/1/2
f 115/1/2 112/1/2 116/1/2
f 117/1/2 118/1/2 119/1/2
f 119/1/2 118/1/2 120/1/2
f 121/5/2 122/5/2 123/5/2
f 123/5/2 122/5/2 124/5/2
f 123/1/2 124/1/2 126/1/2
f 126/1/2 124/1/2 127/1/2
f 126/1/2 127/1/2 129/1/2
f 127/1/2 128/1/2 129/1/2
f 125/1/2 126/1/2 129/1/2
f 129/1/2 128/1/2 130/1/2
f 125/1/2 129/1/2 131/1/2
f 131/1/2 129/1/2 132/1/2
f 130/1/2 128/1/2 133/1/2
f 133/1/2 128/1/2 134/1/2
f 135/5/2 136/5/2 138/5/2
f 136/1/2 137/1/2 138/1/2
f 138/1/2 137/1/2 139/1/2
f 135/5/2 138/5/2 140/5/2
f 140/5/2 138/5/2 141/5/2
f 144/1/2 145/1/2 146/1/2
f 146/1/2 145/1/2 147/1/2
f 142/1/2 143/1/2 149/1/2
f 149/1/2 143/1/2 150/1/2
f 148/1/2 149/1/2 152/1/2
f 152/1/2 149/1/2 153/1/2
f 151/1/2 152/1/2 154/1/2
f 154/1/2 152/1/2 155/1/2
f 156/1/2 157/1/2 158/1/2
f 158/1/2 157/1/2 159/1/2
f 158/4/2 159/4/2 160/4/2
f 159/1/2 157/1/2 161/1/2
f 160/4/2 159/4/2 161/4/2
f 161/1/2 157/1/2 162/1/2
f 161/1/2 162/1/2 164/1/2
f 162/1/2 163/1/2 164/1/2
f 164/1/2 163/1/2 165/1/2
f 166/5/2 167/5/2 168/5/2
f 168/5/2 167/5/2 169/5/2
f 170/5/2 171/5/2 172/5/2
f 172/5/2 171/5/2 173/5/2
f 176/4/3 175/4/3 174/4/3
f 177/4/3 175/4/3 176/4/3
f 180/5/3 179/5/3 178/5/3
f 181/5/3 179/5/3 180/5/3
f 182/5/3 180/5/3 178/5/3
f 184/5/3 182/5/3 178/5/3
f 184/5/3 183/5/3 182/5/3
f 185/5/3 183/5/3 184/5/3
f 189/1/3 187/1/3 186/1/3
f 190/4/3 188/4/3 187/4/3
f 190/1/3 187/1/3 189/1/3
f 191/4/3 188/4/3 190/4/3
f 193/1/3 192/1/3 191/1/3
f 193/5/3 191/5/3 190/5/3
f 194/1/3 192/1/3 193/1/3
f 196/5/3 193/5/3 190/5/3
f 196/5/3 194/5/3 193/5/3
f 197/1/3 195/1/3 194/1/3
f 197/5/3 194/5/3 196/5/3
f 198/1/3 195/1/3 197/1/3
f 200/5/3 196/5/3 190/5/3
f 201/1/3 197/1/3 196/1/3
f 201/5/3 196/5/3 200/5/3
f 202/1/3 197/1/3 201/1/3
f 203/1/3 200/1/3 199/1/3
f 204/4/3 201/4/3 200/4/3
f 204/1/3 200/1/3 203/1/3
f 205/4/3 201/4/3 204/4/3
f 208/5/3 207/5/3 206/5/3
f 209/5/3 207/5/3 208/5/3
f 210/5/3 207/5/3 209/5/3
f 211/5/3 207/5/3 210/5/3
f 212/5/3 207/5/3 211/5/3
f 216/1/3 213/1/3 212/1/3
f 216/1/3 212/1/3 211/1/3
f 217/1/3 213/1/3 216/1/3
f 218/1/3 213/1/3 217/1/3
f 220/1/3 215/1/3 214/1/3
f 221/1/3 215/1/3 220/1/3
f 222/1/3 219/1/3 218/1/3
f 222/1/3 218/1/3 217/1/3
f 223/1/3 219/1/3 222/1/3
f 224/5/3 221/5/3 220/5/3
f 225/1/3 215/1/3 221/1/3
f 225/5/3 221/5/3 224/5/3
f 227/1/3 219/1/3 223/1/3
f 228/1/3 225/1/3 224/1/3
f 229/1/3 215/1/3 225/1/3
f 229/1/3 225/1/3 228/1/3
f 231/1/3 227/1/3 226/1/3
f 232/1/3 219/1/3 227/1/3
f 232/1/3 227/1/3 231/1/3
f 233/1/3 219/1/3 232/1/3
f 234/1/3 231/1/3 230/1/3
f 234/1/3 232/1/3 231/1/3
f 235/1/3 232/1/3 234/1/3
f 238/5/3 237/5/3 236/5/3
f 239/5/3 237/5/3 238/5/3
f 243/1/3 239/1/3 238/1/3
f 244/1/3 239/1/3 243/1/3
f 245/5/3 241/5/3 240/5/3
f 246/1/3 242/1/3 241/1/3
f 246/5/3 241/5/3 245/5/3
f 247/1/3 242/1/3 246/1/3
f 253/1/3 249/1/3 248/1/3
f 254/1/3 249/1/3 253/1/3
f 255/5/3 251/5/3 250/5/3
f 256/1/3 252/1/3 251/1/3
f 256/5/3 251/5/3 255/5/3
f 257/1/3 252/1/3 256/1/3
f 263/5/3 261/5/3 260/5/3
f 263/5/3 262/5/3 261/5/3
f 264/5/3 262/5/3 263/5/3
f 265/1/3 259/1/3 258/1/3
f 266/1/3 259/1/3 265/1/3
f 267/5/3 266/5/3 265/5/3
f 268/5/3 266/5/3 267/5/3
f 269/5/4 270/5/4 271/5/4
f 271/5/4 270/5/4 272/5/4
f 271/1/4 272/1/4 276/1/4
f 276/1/4 272/1/4 277/1/4
f 273/5/4 274/5/4 278/5/4
f 274/1/4 275/1/4 279/1/4
f 278/5/4 274/5/4 279/5/4
f 279/1/4 275/1/4 280/1/4
f 281/1/4 282/1/4 286/1/4
f 286/1/4 282/1/4 287/1/4
f 283/5/4 284/5/4 288/5/4
f 284/1/4 285/1/4 289/1/4
f 288/5/4 284/5/4 289/5/4
f 289/1/4 285/1/4 290/1/4
f 291/1/4 292/1/4 293/1/4
f 293/1/4 292/1/4 294/1/4
f 293/5/4 294/5/4 295/5/4
f 295/5/4 294/5/4 296/5/4
f 297/5/4 298/5/4 299/5/4
f 299/5/4 298/5/4 300/5/4
f 300/5/4 298/5/4 301/5/4
f 301/1/4 302/1/4 305/1/4
f 305/1/4 302/1/4 306/1/4
f 303/1/4 304/1/4 308/1/4
f 308/1/4 304/1/4 309/1/4
f 309/1/4 304/1/4 311/1/4
f 310/1/4 311/1/4 312/1/4
f 311/1/4 304/1/4 313/1/4
f 312/1/4 311/1/4 313/1/4
f 306/1/4 307/1/4 315/1/4
f 315/1/4 307/1/4 316/1/4
f 314/1/4 315/1/4 317/1/4
f 317/1/4 315/1/4 318/1/4
f 319/1/4 320/1/4 322/1/4
f 322/1/4 320/1/4 323/1/4
f 323/1/4 320/1/4 324/1/4
f 321/1/4 322/1/4 326/1/4
f 322/1/4 323/1/4 326/1/4
f 326/1/4 323/1/4 327/1/4
f 321/1/4 326/1/4 328/1/4
f 321/1/4 328/1/4 330/1/4
f 328/1/4 329/1/4 330/1/4
f 330/1/4 329/1/4 331/1/4
f 331/1/4 329/1/4 332/1/4
f 324/1/4 325/1/4 333/1/4
f 333/1/4 325/1/4 334/1/4
f 331/1/4 332/1/4 336/1/4
f 332/1/4 333/1/4 336/1/4
f 336/1/4 333/1/4 337/1/4
f 335/5/4 336/5/4 338/5/4
f 336/5/4 337/5/4 338/5/4
f 338/5/4 337/5/4 339/5/4
f 340/1/4 341/1/4 345/1/4
f 342/2/4 343/2/4 346/2/4
f 346/2/4 343/2/4 347/2/4
f 344/1/4 345/1/4 348/1/4
f 345/1/4 341/1/4 349/1/4
f 348/1/4 345/1/4 349/1/4
f 349/1/4 341/1/4 350/1/4
f 350/1/4 341/1/4 351/1/4
f 356/5/5 353/5/5 352/5/5
f 357/5/5 353/5/5 356/5/5
f 358/5/5 355/5/5 354/5/5
f 359/5/5 355/5/5 358/5/5
f 364/1/5 361/1/5 360/1/5
f 365/5/5 362/5/5 361/5/5
f 365/1/5 361/1/5 364/1/5
f 366/1/5 363/1/5 362/1/5
f 366/5/5 362/5/5 365/5/5
f 367/1/5 363/1/5 366/1/5
f 369/1/5 366/1/5 365/1/5
f 370/1/5 366/1/5 369/1/5
f 372/1/5 369/1/5 368/1/5
f 372/1/5 371/1/5 370/1/5
f 372/1/5 370/1/5 369/1/5
f 373/1/5 371/1/5 372/1/5
f 374/1/5 371/1/5 373/1/5
f 375/1/5 371/1/5 374/1/5
f 376/1/5 374/1/5 373/1/5
f 377/1/5 374/1/5 376/1/5
f 378/2/5 377/2/5 376/2/5
f 379/2/5 377/2/5 378/2/5
f 386/5/5 381/5/5 380/5/5
f 387/1/5 382/1/5 381/1/5
f 387/5/5 381/5/5 386/5/5
f 388/1/5 382/1/5 387/1/5
f 389/1/5 384/1/5 383/1/5
f 390/5/5 385/5/5 384/5/5
f 390/1/5 384/1/5 389/1/5
f 391/5/5 385/5/5 390/5/5
f 394/5/5 393/5/5 392/5/5
f 395/5/5 393/5/5 394/5/5
f 398/1/5 395/1/5 394/1/5
f 399/1/5 395/1/5 398/1/5
f 402/1/5 398/1/5 394/1/5
f 403/1/5 395/1/5 399/1/5
f 404/5/5 397/5/5 396/5/5
f 405/5/5 397/5/5 404/5/5
f 406/1/5 403/1/5 402/1/5
f 406/1/5 402/1/5 394/1/5
f 407/1/5 395/1/5 403/1/5
f 407/1/5 403/1/5 406/1/5
f 408/5/5 401/5/5 400/5/5
f 409/5/5 401/5/5 408/5/5
f 412/4/5 411/4/5 410/4/5
f 413/4/5 411/4/5 412/4/5
f 418/1/5 415/1/5 414/1/5
f 419/1/5 417/1/5 416/1/5
f 420/1/5 415/1/5 418/1/5
f 421/1/5 415/1/5 420/1/5
f 422/1/5 415/1/5 421/1/5
f 425/1/5 419/1/5 416/1/5
f 426/1/5 419/1/5 425/1/5
f 427/1/5 424/1/5 423/1/5
f 428/1/5 424/1/5 427/1/5
f 433/1/5 430/1/5 429/1/5
f 434/1/5 430/1/5 433/1/5
f 435/1/5 432/1/5 431/1/5
f 436/1/5 432/1/5 435/1/5
f 437/1/6 438/1/6 439/1/6
f 439/1/6 438/1/6 440/1/6
f 439/2/6 440/2/6 441/2/6
f 441/2/6 440/2/6 442/2/6
f 443/1/6 444/1/6 447/1/6
f 447/1/6 444/1/6 448/1/6
f 448/1/6 444/1/6 449/1/6
f 449/1/6 444/1/6 450/1/6
f 445/5/6 446/5/6 453/5/6
f 446/1/6 447/1/6 454/1/6
f 453/5/6 446/5/6 454/5/6
f 447/1/6 448/1/6 454/1/6
f 454/1/6 448/1/6 455/1/6
f 455/1/6 448/1/6 456/1/6
f 449/1/6 450/1/6 457/1/6
f 450/1/6 451/1/6 457/1/6
f 457/1/6 451/1/6 458/1/6
f 451/5/6 452/5/6 459/5/6
f 458/1/6 451/1/6 459/1/6
f 459/5/6 452/5/6 460/5/6
f 457/1/6 458/1/6 461/1/6
f 455/1/6 456/1/6 461/1/6
f 456/1/6 457/1/6 461/1/6
f 461/1/6 458/1/6 462/1/6
f 463/4/6 464/4/6 466/4/6
f 466/4/6 464/4/6 467/4/6
f 465/5/6 466/5/6 469/5/6
f 467/5/6 468/5/6 469/5/6
f 466/5/6 467/5/6 469/5/6
f 469/5/6 468/5/6 470/5/6
f 471/4/6 472/4/6 475/4/6
f 475/4/6 472/4/6 476/4/6
f 473/4/6 474/4/6 477/4/6
f 477/4/6 474/4/6 478/4/6
f 479/1/6 480/1/6 485/1/6
f 485/1/6 480/1/6 486/1/6
f 481/1/6 482/1/6 487/1/6
f 487/1/6 482/1/6 488/1/6
f 483/5/6 484/5/6 491/5/6
f 491/5/6 484/5/6 492/5/6
f 489/5/6 490/5/6 495/5/6
f 492/1/6 493/1/6 496/1/6
f 496/1/6 493/1/6 497/1/6
f 494/1/6 495/1/6 498/1/6
f 495/5/6 490/5/6 499/5/6
f 498/1/6 495/1/6 499/1/6
f 499/5/6 490/5/6 500/5/6
f 497/1/6 498/1/6 501/1/6
f 501/1/6 498/1/6 502/1/6
f 503/1/6 504/1/6 507/1/6
f 507/1/6 504/1/6 508/1/6
f 505/1/6 506/1/6 511/1/6
f 511/1/6 506/1/6 512/1/6
f 509/1/6 510/1/6 513/1/6
f 513/1/6 510/1/6 514/1/6
f 512/1/6 513/1/6 515/1/6
f 515/1/6 513/1/6 516/1/6
f 517/1/6 518/1/6 519/1/6
f 519/1/6 518/1/6 520/1/6
