# MagicaVoxel @ Ephtracy

# group
o 

# material
mtllib Obstacle_RandomBox.mtl
usemtl palette

# normals
vn -1 0 0
vn 1 0 0
vn 0 0 1
vn 0 0 -1
vn 0 -1 0
vn 0 1 0

# texcoords
vt 0.0917969 0.5
vt 0.751953 0.5
vt 0.970703 0.5

# verts
v 0 0.4 0
v 0 0.4 -0.3
v 0 0.4 -0.5
v 0 0.4 -0.8
v 0 1.1 0
v 0 1.1 -0.3
v 0 1.1 -0.5
v 0 1.1 -0.8
v 0.1 1.1 -0.1
v 0.1 1.1 -0.2
v 0.1 1.1 -0.6
v 0.1 1.1 -0.7
v 0.1 1.2 -0.1
v 0.1 1.2 -0.2
v 0.1 1.2 -0.6
v 0.1 1.2 -0.7
v 0.2 1.1 -0.2
v 0.2 1.1 -0.3
v 0.2 1.1 -0.5
v 0.2 1.1 -0.6
v 0.2 1.2 -0.2
v 0.2 1.2 -0.3
v 0.2 1.2 -0.5
v 0.2 1.2 -0.6
v 0.3 1.1 -0.3
v 0.3 1.1 -0.5
v 0.3 1.2 -0.3
v 0.3 1.2 -0.5
v 0.5 1.1 -0.2
v 0.5 1.1 -0.3
v 0.5 1.1 -0.5
v 0.5 1.1 -0.6
v 0.5 1.2 -0.2
v 0.5 1.2 -0.3
v 0.5 1.2 -0.5
v 0.5 1.2 -0.6
v 0.6 1.1 -0.1
v 0.6 1.1 -0.2
v 0.6 1.1 -0.6
v 0.6 1.1 -0.7
v 0.6 1.2 -0.1
v 0.6 1.2 -0.2
v 0.6 1.2 -0.6
v 0.6 1.2 -0.7
v 0.2 1.1 -0.1
v 0.2 1.1 -0.2
v 0.2 1.1 -0.6
v 0.2 1.1 -0.7
v 0.2 1.2 -0.1
v 0.2 1.2 -0.2
v 0.2 1.2 -0.6
v 0.2 1.2 -0.7
v 0.3 1.1 -0.2
v 0.3 1.1 -0.3
v 0.3 1.1 -0.5
v 0.3 1.1 -0.6
v 0.3 1.2 -0.2
v 0.3 1.2 -0.3
v 0.3 1.2 -0.5
v 0.3 1.2 -0.6
v 0.5 1.1 -0.3
v 0.5 1.1 -0.5
v 0.5 1.2 -0.3
v 0.5 1.2 -0.5
v 0.6 1.1 -0.2
v 0.6 1.1 -0.3
v 0.6 1.1 -0.5
v 0.6 1.1 -0.6
v 0.6 1.2 -0.2
v 0.6 1.2 -0.3
v 0.6 1.2 -0.5
v 0.6 1.2 -0.6
v 0.7 1.1 -0.1
v 0.7 1.1 -0.2
v 0.7 1.1 -0.6
v 0.7 1.1 -0.7
v 0.7 1.2 -0.1
v 0.7 1.2 -0.2
v 0.7 1.2 -0.6
v 0.7 1.2 -0.7
v 0.8 0.4 0
v 0.8 0.4 -0.3
v 0.8 0.4 -0.5
v 0.8 0.4 -0.8
v 0.8 1.1 0
v 0.8 1.1 -0.3
v 0.8 1.1 -0.5
v 0.8 1.1 -0.8
v 0 0.4 0
v 0 1.1 0
v 0.3 0.4 0
v 0.3 1.1 0
v 0.5 0.4 0
v 0.5 1.1 0
v 0.8 0.4 0
v 0.8 1.1 0
v 0.1 1.1 -0.1
v 0.1 1.2 -0.1
v 0.2 1.1 -0.1
v 0.2 1.2 -0.1
v 0.6 1.1 -0.1
v 0.6 1.2 -0.1
v 0.7 1.1 -0.1
v 0.7 1.2 -0.1
v 0.2 1.1 -0.2
v 0.2 1.2 -0.2
v 0.3 1.1 -0.2
v 0.3 1.2 -0.2
v 0.5 1.1 -0.2
v 0.5 1.2 -0.2
v 0.6 1.1 -0.2
v 0.6 1.2 -0.2
v 0.3 1.1 -0.3
v 0.3 1.2 -0.3
v 0.5 1.1 -0.3
v 0.5 1.2 -0.3
v 0.2 1.1 -0.5
v 0.2 1.2 -0.5
v 0.3 1.1 -0.5
v 0.3 1.2 -0.5
v 0.5 1.1 -0.5
v 0.5 1.2 -0.5
v 0.6 1.1 -0.5
v 0.6 1.2 -0.5
v 0.1 1.1 -0.6
v 0.1 1.2 -0.6
v 0.2 1.1 -0.6
v 0.2 1.2 -0.6
v 0.6 1.1 -0.6
v 0.6 1.2 -0.6
v 0.7 1.1 -0.6
v 0.7 1.2 -0.6
v 0.1 1.1 -0.2
v 0.1 1.2 -0.2
v 0.2 1.1 -0.2
v 0.2 1.2 -0.2
v 0.6 1.1 -0.2
v 0.6 1.2 -0.2
v 0.7 1.1 -0.2
v 0.7 1.2 -0.2
v 0.2 1.1 -0.3
v 0.2 1.2 -0.3
v 0.3 1.1 -0.3
v 0.3 1.2 -0.3
v 0.5 1.1 -0.3
v 0.5 1.2 -0.3
v 0.6 1.1 -0.3
v 0.6 1.2 -0.3
v 0.3 1.1 -0.5
v 0.3 1.2 -0.5
v 0.5 1.1 -0.5
v 0.5 1.2 -0.5
v 0.2 1.1 -0.6
v 0.2 1.2 -0.6
v 0.3 1.1 -0.6
v 0.3 1.2 -0.6
v 0.5 1.1 -0.6
v 0.5 1.2 -0.6
v 0.6 1.1 -0.6
v 0.6 1.2 -0.6
v 0.1 1.1 -0.7
v 0.1 1.2 -0.7
v 0.2 1.1 -0.7
v 0.2 1.2 -0.7
v 0.6 1.1 -0.7
v 0.6 1.2 -0.7
v 0.7 1.1 -0.7
v 0.7 1.2 -0.7
v 0 0.4 -0.8
v 0 1.1 -0.8
v 0.3 0.4 -0.8
v 0.3 1.1 -0.8
v 0.5 0.4 -0.8
v 0.5 1.1 -0.8
v 0.8 0.4 -0.8
v 0.8 1.1 -0.8
v 0 0.4 0
v 0.3 0.4 0
v 0.5 0.4 0
v 0.8 0.4 0
v 0 0.4 -0.3
v 0.3 0.4 -0.3
v 0.5 0.4 -0.3
v 0.8 0.4 -0.3
v 0 0.4 -0.5
v 0.3 0.4 -0.5
v 0.5 0.4 -0.5
v 0.8 0.4 -0.5
v 0 0.4 -0.8
v 0.3 0.4 -0.8
v 0.5 0.4 -0.8
v 0.8 0.4 -0.8
v 0 1.1 0
v 0.3 1.1 0
v 0.5 1.1 0
v 0.8 1.1 0
v 0.1 1.1 -0.1
v 0.2 1.1 -0.1
v 0.6 1.1 -0.1
v 0.7 1.1 -0.1
v 0.1 1.1 -0.2
v 0.2 1.1 -0.2
v 0.3 1.1 -0.2
v 0.5 1.1 -0.2
v 0.6 1.1 -0.2
v 0.7 1.1 -0.2
v 0 1.1 -0.3
v 0.2 1.1 -0.3
v 0.3 1.1 -0.3
v 0.5 1.1 -0.3
v 0.6 1.1 -0.3
v 0.8 1.1 -0.3
v 0 1.1 -0.5
v 0.2 1.1 -0.5
v 0.3 1.1 -0.5
v 0.5 1.1 -0.5
v 0.6 1.1 -0.5
v 0.8 1.1 -0.5
v 0.1 1.1 -0.6
v 0.2 1.1 -0.6
v 0.3 1.1 -0.6
v 0.5 1.1 -0.6
v 0.6 1.1 -0.6
v 0.7 1.1 -0.6
v 0.1 1.1 -0.7
v 0.2 1.1 -0.7
v 0.6 1.1 -0.7
v 0.7 1.1 -0.7
v 0 1.1 -0.8
v 0.3 1.1 -0.8
v 0.5 1.1 -0.8
v 0.8 1.1 -0.8
v 0.1 1.2 -0.1
v 0.2 1.2 -0.1
v 0.6 1.2 -0.1
v 0.7 1.2 -0.1
v 0.1 1.2 -0.2
v 0.2 1.2 -0.2
v 0.3 1.2 -0.2
v 0.5 1.2 -0.2
v 0.6 1.2 -0.2
v 0.7 1.2 -0.2
v 0.2 1.2 -0.3
v 0.3 1.2 -0.3
v 0.5 1.2 -0.3
v 0.6 1.2 -0.3
v 0.2 1.2 -0.5
v 0.3 1.2 -0.5
v 0.5 1.2 -0.5
v 0.6 1.2 -0.5
v 0.1 1.2 -0.6
v 0.2 1.2 -0.6
v 0.3 1.2 -0.6
v 0.5 1.2 -0.6
v 0.6 1.2 -0.6
v 0.7 1.2 -0.6
v 0.1 1.2 -0.7
v 0.2 1.2 -0.7
v 0.6 1.2 -0.7
v 0.7 1.2 -0.7

# faces
f 5/2/1 2/2/1 1/2/1
f 6/1/1 3/1/1 2/1/1
f 6/2/1 2/2/1 5/2/1
f 7/2/1 4/2/1 3/2/1
f 7/1/1 3/1/1 6/1/1
f 8/2/1 4/2/1 7/2/1
f 13/1/1 10/1/1 9/1/1
f 14/1/1 10/1/1 13/1/1
f 15/1/1 12/1/1 11/1/1
f 16/1/1 12/1/1 15/1/1
f 21/1/1 18/1/1 17/1/1
f 22/1/1 18/1/1 21/1/1
f 23/1/1 20/1/1 19/1/1
f 24/1/1 20/1/1 23/1/1
f 27/1/1 26/1/1 25/1/1
f 28/1/1 26/1/1 27/1/1
f 33/1/1 30/1/1 29/1/1
f 34/1/1 30/1/1 33/1/1
f 35/1/1 32/1/1 31/1/1
f 36/1/1 32/1/1 35/1/1
f 41/1/1 38/1/1 37/1/1
f 42/1/1 38/1/1 41/1/1
f 43/1/1 40/1/1 39/1/1
f 44/1/1 40/1/1 43/1/1
f 45/1/2 46/1/2 49/1/2
f 49/1/2 46/1/2 50/1/2
f 47/1/2 48/1/2 51/1/2
f 51/1/2 48/1/2 52/1/2
f 53/1/2 54/1/2 57/1/2
f 57/1/2 54/1/2 58/1/2
f 55/1/2 56/1/2 59/1/2
f 59/1/2 56/1/2 60/1/2
f 61/1/2 62/1/2 63/1/2
f 63/1/2 62/1/2 64/1/2
f 65/1/2 66/1/2 69/1/2
f 69/1/2 66/1/2 70/1/2
f 67/1/2 68/1/2 71/1/2
f 71/1/2 68/1/2 72/1/2
f 73/1/2 74/1/2 77/1/2
f 77/1/2 74/1/2 78/1/2
f 75/1/2 76/1/2 79/1/2
f 79/1/2 76/1/2 80/1/2
f 81/2/2 82/2/2 85/2/2
f 82/1/2 83/1/2 86/1/2
f 85/2/2 82/2/2 86/2/2
f 83/2/2 84/2/2 87/2/2
f 86/1/2 83/1/2 87/1/2
f 87/2/2 84/2/2 88/2/2
f 91/2/3 90/2/3 89/2/3
f 92/2/3 90/2/3 91/2/3
f 93/1/3 92/1/3 91/1/3
f 94/1/3 92/1/3 93/1/3
f 95/2/3 94/2/3 93/2/3
f 96/2/3 94/2/3 95/2/3
f 99/1/3 98/1/3 97/1/3
f 100/1/3 98/1/3 99/1/3
f 103/1/3 102/1/3 101/1/3
f 104/1/3 102/1/3 103/1/3
f 107/1/3 106/1/3 105/1/3
f 108/1/3 106/1/3 107/1/3
f 111/1/3 110/1/3 109/1/3
f 112/1/3 110/1/3 111/1/3
f 115/1/3 114/1/3 113/1/3
f 116/1/3 114/1/3 115/1/3
f 119/1/3 118/1/3 117/1/3
f 120/1/3 118/1/3 119/1/3
f 123/1/3 122/1/3 121/1/3
f 124/1/3 122/1/3 123/1/3
f 127/1/3 126/1/3 125/1/3
f 128/1/3 126/1/3 127/1/3
f 131/1/3 130/1/3 129/1/3
f 132/1/3 130/1/3 131/1/3
f 133/1/4 134/1/4 135/1/4
f 135/1/4 134/1/4 136/1/4
f 137/1/4 138/1/4 139/1/4
f 139/1/4 138/1/4 140/1/4
f 141/1/4 142/1/4 143/1/4
f 143/1/4 142/1/4 144/1/4
f 145/1/4 146/1/4 147/1/4
f 147/1/4 146/1/4 148/1/4
f 149/1/4 150/1/4 151/1/4
f 151/1/4 150/1/4 152/1/4
f 153/1/4 154/1/4 155/1/4
f 155/1/4 154/1/4 156/1/4
f 157/1/4 158/1/4 159/1/4
f 159/1/4 158/1/4 160/1/4
f 161/1/4 162/1/4 163/1/4
f 163/1/4 162/1/4 164/1/4
f 165/1/4 166/1/4 167/1/4
f 167/1/4 166/1/4 168/1/4
f 169/2/4 170/2/4 171/2/4
f 171/2/4 170/2/4 172/2/4
f 171/1/4 172/1/4 173/1/4
f 173/1/4 172/1/4 174/1/4
f 173/2/4 174/2/4 175/2/4
f 175/2/4 174/2/4 176/2/4
f 181/2/5 178/2/5 177/2/5
f 182/1/5 179/1/5 178/1/5
f 182/2/5 178/2/5 181/2/5
f 183/2/5 180/2/5 179/2/5
f 183/1/5 179/1/5 182/1/5
f 184/2/5 180/2/5 183/2/5
f 185/1/5 182/1/5 181/1/5
f 185/1/5 183/1/5 182/1/5
f 185/1/5 184/1/5 183/1/5
f 186/1/5 184/1/5 185/1/5
f 187/1/5 184/1/5 186/1/5
f 188/1/5 184/1/5 187/1/5
f 189/2/5 186/2/5 185/2/5
f 190/1/5 187/1/5 186/1/5
f 190/2/5 186/2/5 189/2/5
f 191/2/5 188/2/5 187/2/5
f 191/1/5 187/1/5 190/1/5
f 192/2/5 188/2/5 191/2/5
f 193/2/6 194/2/6 197/2/6
f 197/2/6 194/2/6 198/2/6
f 195/2/6 196/2/6 199/2/6
f 199/2/6 196/2/6 200/2/6
f 193/2/6 197/2/6 201/2/6
f 198/2/6 194/2/6 202/2/6
f 194/1/6 195/1/6 203/1/6
f 202/2/6 194/2/6 203/2/6
f 195/2/6 199/2/6 204/2/6
f 203/1/6 195/1/6 204/1/6
f 204/2/6 199/2/6 205/2/6
f 200/2/6 196/2/6 206/2/6
f 193/2/6 201/2/6 207/2/6
f 201/2/6 202/2/6 207/2/6
f 207/2/6 202/2/6 208/2/6
f 203/1/6 204/1/6 209/1/6
f 209/1/6 204/1/6 210/1/6
f 205/2/6 206/2/6 211/2/6
f 206/2/6 196/2/6 212/2/6
f 211/2/6 206/2/6 212/2/6
f 207/1/6 208/1/6 213/1/6
f 208/1/6 209/1/6 213/1/6
f 213/1/6 209/1/6 214/1/6
f 214/1/6 209/1/6 215/1/6
f 210/1/6 211/1/6 216/1/6
f 211/1/6 212/1/6 216/1/6
f 216/1/6 212/1/6 217/1/6
f 217/1/6 212/1/6 218/1/6
f 213/2/6 214/2/6 219/2/6
f 219/2/6 214/2/6 220/2/6
f 215/1/6 216/1/6 221/1/6
f 221/1/6 216/1/6 222/1/6
f 217/2/6 218/2/6 223/2/6
f 223/2/6 218/2/6 224/2/6
f 213/2/6 219/2/6 225/2/6
f 220/2/6 221/2/6 226/2/6
f 222/2/6 223/2/6 227/2/6
f 224/2/6 218/2/6 228/2/6
f 225/2/6 226/2/6 229/2/6
f 213/2/6 225/2/6 229/2/6
f 221/1/6 222/1/6 230/1/6
f 229/2/6 226/2/6 230/2/6
f 226/2/6 221/2/6 230/2/6
f 222/2/6 227/2/6 231/2/6
f 230/1/6 222/1/6 231/1/6
f 227/2/6 228/2/6 231/2/6
f 228/2/6 218/2/6 232/2/6
f 231/2/6 228/2/6 232/2/6
f 233/1/6 234/1/6 237/1/6
f 237/1/6 234/1/6 238/1/6
f 235/1/6 236/1/6 241/1/6
f 241/1/6 236/1/6 242/1/6
f 238/1/6 239/1/6 243/1/6
f 243/1/6 239/1/6 244/1/6
f 240/1/6 241/1/6 245/1/6
f 245/1/6 241/1/6 246/1/6
f 244/1/6 245/1/6 248/1/6
f 248/1/6 245/1/6 249/1/6
f 247/1/6 248/1/6 252/1/6
f 252/1/6 248/1/6 253/1/6
f 249/1/6 250/1/6 254/1/6
f 254/1/6 250/1/6 255/1/6
f 251/1/6 252/1/6 257/1/6
f 257/1/6 252/1/6 258/1/6
f 255/1/6 256/1/6 259/1/6
f 259/1/6 256/1/6 260/1/6
