# MagicaVoxel @ Ephtracy

# group
o 

# material
mtllib Obstacle_Cube_Pink.mtl
usemtl palette

# normals
vn -1 0 0
vn 1 0 0
vn 0 0 1
vn 0 0 -1
vn 0 -1 0
vn 0 1 0

# texcoords
vt 0.0292969 0.5
vt 0.306641 0.5
vt 0.958984 0.5

# verts
v 0 0.4 0
v 0 0.4 -0.8
v 0 0.5 -0.2
v 0 0.5 -0.3
v 0 0.6 -0.1
v 0 0.6 -0.2
v 0 0.6 -0.3
v 0 1.1 -0.1
v 0 1.1 -0.2
v 0 1.2 0
v 0 1.2 -0.8
v 0.8 0.4 0
v 0.8 0.4 -0.8
v 0.8 0.5 -0.5
v 0.8 0.5 -0.6
v 0.8 0.6 -0.5
v 0.8 0.6 -0.6
v 0.8 0.6 -0.7
v 0.8 1.1 -0.6
v 0.8 1.1 -0.7
v 0.8 1.2 0
v 0.8 1.2 -0.8
v 0 0.4 0
v 0 1.2 0
v 0.5 0.5 0
v 0.5 0.6 0
v 0.6 0.5 0
v 0.6 0.6 0
v 0.6 1.1 0
v 0.7 0.6 0
v 0.7 1.1 0
v 0.8 0.4 0
v 0.8 1.2 0
v 0 0.4 -0.8
v 0 1.2 -0.8
v 0.1 0.6 -0.8
v 0.1 1.1 -0.8
v 0.2 0.5 -0.8
v 0.2 0.6 -0.8
v 0.2 1.1 -0.8
v 0.3 0.5 -0.8
v 0.3 0.6 -0.8
v 0.8 0.4 -0.8
v 0.8 1.2 -0.8
v 0 0.4 0
v 0.8 0.4 0
v 0.1 0.4 -0.5
v 0.2 0.4 -0.5
v 0.1 0.4 -0.6
v 0.2 0.4 -0.6
v 0.7 0.4 -0.6
v 0.2 0.4 -0.7
v 0.7 0.4 -0.7
v 0 0.4 -0.8
v 0.8 0.4 -0.8
v 0 1.2 0
v 0.8 1.2 0
v 0.2 1.2 -0.1
v 0.7 1.2 -0.1
v 0.1 1.2 -0.2
v 0.2 1.2 -0.2
v 0.7 1.2 -0.2
v 0.1 1.2 -0.3
v 0.2 1.2 -0.3
v 0 1.2 -0.8
v 0.8 1.2 -0.8

# faces
f 3/1/1 2/1/1 1/1/1
f 4/1/1 2/1/1 3/1/1
f 5/1/1 3/1/1 1/1/1
f 6/3/1 4/3/1 3/3/1
f 6/1/1 3/1/1 5/1/1
f 7/1/1 2/1/1 4/1/1
f 7/3/1 4/3/1 6/3/1
f 8/3/1 6/3/1 5/3/1
f 8/1/1 5/1/1 1/1/1
f 9/1/1 7/1/1 6/1/1
f 9/3/1 6/3/1 8/3/1
f 10/1/1 8/1/1 1/1/1
f 10/1/1 9/1/1 8/1/1
f 11/1/1 2/1/1 7/1/1
f 11/1/1 9/1/1 10/1/1
f 11/1/1 7/1/1 9/1/1
f 12/1/2 13/1/2 14/1/2
f 14/1/2 13/1/2 15/1/2
f 12/1/2 14/1/2 16/1/2
f 14/3/2 15/3/2 16/3/2
f 15/1/2 13/1/2 17/1/2
f 16/3/2 15/3/2 17/3/2
f 17/1/2 13/1/2 18/1/2
f 16/1/2 17/1/2 19/1/2
f 17/3/2 18/3/2 19/3/2
f 18/1/2 13/1/2 20/1/2
f 19/3/2 18/3/2 20/3/2
f 12/1/2 16/1/2 21/1/2
f 16/1/2 19/1/2 21/1/2
f 19/1/2 20/1/2 21/1/2
f 20/1/2 13/1/2 22/1/2
f 21/1/2 20/1/2 22/1/2
f 25/1/3 24/1/3 23/1/3
f 26/1/3 24/1/3 25/1/3
f 27/1/3 25/1/3 23/1/3
f 27/3/3 26/3/3 25/3/3
f 28/1/3 24/1/3 26/1/3
f 28/3/3 26/3/3 27/3/3
f 29/1/3 24/1/3 28/1/3
f 30/1/3 28/1/3 27/1/3
f 30/3/3 29/3/3 28/3/3
f 31/1/3 24/1/3 29/1/3
f 31/3/3 29/3/3 30/3/3
f 32/1/3 27/1/3 23/1/3
f 32/1/3 30/1/3 27/1/3
f 32/1/3 31/1/3 30/1/3
f 33/1/3 24/1/3 31/1/3
f 33/1/3 31/1/3 32/1/3
f 34/1/4 35/1/4 36/1/4
f 36/1/4 35/1/4 37/1/4
f 34/1/4 36/1/4 38/1/4
f 36/3/4 37/3/4 39/3/4
f 38/1/4 36/1/4 39/1/4
f 37/1/4 35/1/4 40/1/4
f 39/3/4 37/3/4 40/3/4
f 38/3/4 39/3/4 41/3/4
f 34/1/4 38/1/4 41/1/4
f 39/1/4 40/1/4 42/1/4
f 41/3/4 39/3/4 42/3/4
f 34/1/4 41/1/4 43/1/4
f 41/1/4 42/1/4 43/1/4
f 40/1/4 35/1/4 44/1/4
f 43/1/4 42/1/4 44/1/4
f 42/1/4 40/1/4 44/1/4
f 47/1/5 46/1/5 45/1/5
f 48/1/5 46/1/5 47/1/5
f 49/1/5 47/1/5 45/1/5
f 49/3/5 48/3/5 47/3/5
f 50/1/5 46/1/5 48/1/5
f 50/3/5 48/3/5 49/3/5
f 51/1/5 46/1/5 50/1/5
f 52/1/5 50/1/5 49/1/5
f 52/3/5 51/3/5 50/3/5
f 53/1/5 46/1/5 51/1/5
f 53/3/5 51/3/5 52/3/5
f 54/1/5 49/1/5 45/1/5
f 54/1/5 52/1/5 49/1/5
f 54/1/5 53/1/5 52/1/5
f 55/1/5 46/1/5 53/1/5
f 55/1/5 53/1/5 54/1/5
f 56/1/6 57/1/6 58/1/6
f 58/1/6 57/1/6 59/1/6
f 56/1/6 58/1/6 60/1/6
f 58/3/6 59/3/6 61/3/6
f 60/1/6 58/1/6 61/1/6
f 59/1/6 57/1/6 62/1/6
f 61/3/6 59/3/6 62/3/6
f 60/3/6 61/3/6 63/3/6
f 56/1/6 60/1/6 63/1/6
f 61/1/6 62/1/6 64/1/6
f 63/3/6 61/3/6 64/3/6
f 56/1/6 63/1/6 65/1/6
f 63/1/6 64/1/6 65/1/6
f 62/1/6 57/1/6 66/1/6
f 65/1/6 64/1/6 66/1/6
f 64/1/6 62/1/6 66/1/6
