# MagicaVoxel @ Ephtracy

# group
o 

# material
mtllib Obstacle_Rock.mtl
usemtl palette

# normals
vn -1 0 0
vn 1 0 0
vn 0 0 1
vn 0 0 -1
vn 0 -1 0
vn 0 1 0

# texcoords
vt 0.306641 0.5
vt 0.978516 0.5
vt 0.986328 0.5
vt 0.990234 0.5

# verts
v 0 2 0
v 0 2 -0.2
v 0 2 -0.3
v 0 2 -0.8
v 0 2.1 -0.2
v 0 2.1 -0.3
v 0 2.1 -0.5
v 0 2.1 -0.6
v 0 2.2 -0.5
v 0 2.2 -0.6
v 0 2.3 -0.4
v 0 2.3 -0.5
v 0 2.4 -0.2
v 0 2.4 -0.3
v 0 2.4 -0.4
v 0 2.4 -0.5
v 0 2.4 -0.7
v 0 2.4 -0.8
v 0 2.5 -0.2
v 0 2.5 -0.3
v 0 2.5 -0.7
v 0 2.5 -0.8
v 0 2.7 -0.2
v 0 2.7 -0.3
v 0 2.8 0
v 0 2.8 -0.2
v 0 2.8 -0.3
v 0 2.8 -0.8
v 0.8 2 0
v 0.8 2 -0.1
v 0.8 2 -0.3
v 0.8 2 -0.4
v 0.8 2 -0.6
v 0.8 2 -0.7
v 0.8 2 -0.8
v 0.8 2.1 0
v 0.8 2.1 -0.1
v 0.8 2.1 -0.3
v 0.8 2.1 -0.4
v 0.8 2.1 -0.6
v 0.8 2.1 -0.7
v 0.8 2.2 -0.4
v 0.8 2.2 -0.5
v 0.8 2.2 -0.7
v 0.8 2.2 -0.8
v 0.8 2.3 0
v 0.8 2.3 -0.1
v 0.8 2.3 -0.4
v 0.8 2.3 -0.5
v 0.8 2.3 -0.7
v 0.8 2.3 -0.8
v 0.8 2.4 0
v 0.8 2.4 -0.1
v 0.8 2.4 -0.4
v 0.8 2.4 -0.5
v 0.8 2.5 0
v 0.8 2.5 -0.1
v 0.8 2.5 -0.4
v 0.8 2.5 -0.5
v 0.8 2.5 -0.7
v 0.8 2.5 -0.8
v 0.8 2.6 -0.7
v 0.8 2.6 -0.8
v 0.8 2.7 -0.2
v 0.8 2.7 -0.3
v 0.8 2.7 -0.5
v 0.8 2.7 -0.6
v 0.8 2.7 -0.7
v 0.8 2.8 0
v 0.8 2.8 -0.2
v 0.8 2.8 -0.3
v 0.8 2.8 -0.5
v 0.8 2.8 -0.6
v 0.8 2.8 -0.7
v 0.8 2.8 -0.8
v 0 2 0
v 0 2.8 0
v 0.1 2.1 0
v 0.1 2.2 0
v 0.1 2.6 0
v 0.1 2.7 0
v 0.2 2.1 0
v 0.2 2.2 0
v 0.2 2.6 0
v 0.2 2.7 0
v 0.3 2.2 0
v 0.3 2.3 0
v 0.3 2.7 0
v 0.3 2.8 0
v 0.4 2.2 0
v 0.4 2.3 0
v 0.4 2.4 0
v 0.4 2.6 0
v 0.4 2.7 0
v 0.4 2.8 0
v 0.5 2.4 0
v 0.5 2.6 0
v 0.6 2.6 0
v 0.6 2.7 0
v 0.7 2 0
v 0.7 2.1 0
v 0.7 2.3 0
v 0.7 2.4 0
v 0.7 2.5 0
v 0.7 2.6 0
v 0.7 2.7 0
v 0.8 2 0
v 0.8 2.1 0
v 0.8 2.3 0
v 0.8 2.4 0
v 0.8 2.5 0
v 0.8 2.8 0
v 0 2 -0.8
v 0 2.4 -0.8
v 0 2.5 -0.8
v 0 2.8 -0.8
v 0.1 2.2 -0.8
v 0.1 2.3 -0.8
v 0.1 2.4 -0.8
v 0.1 2.5 -0.8
v 0.2 2.2 -0.8
v 0.2 2.3 -0.8
v 0.3 2.2 -0.8
v 0.3 2.3 -0.8
v 0.4 2.2 -0.8
v 0.4 2.3 -0.8
v 0.4 2.4 -0.8
v 0.4 2.6 -0.8
v 0.5 2.4 -0.8
v 0.5 2.6 -0.8
v 0.6 2.2 -0.8
v 0.6 2.3 -0.8
v 0.7 2.5 -0.8
v 0.7 2.6 -0.8
v 0.8 2 -0.8
v 0.8 2.2 -0.8
v 0.8 2.3 -0.8
v 0.8 2.5 -0.8
v 0.8 2.6 -0.8
v 0.8 2.8 -0.8
v 0 2 0
v 0.7 2 0
v 0.8 2 0
v 0.6 2 -0.1
v 0.7 2 -0.1
v 0.8 2 -0.1
v 0 2 -0.2
v 0.1 2 -0.2
v 0.6 2 -0.2
v 0.7 2 -0.2
v 0 2 -0.3
v 0.1 2 -0.3
v 0.3 2 -0.3
v 0.4 2 -0.3
v 0.7 2 -0.3
v 0.8 2 -0.3
v 0.3 2 -0.4
v 0.4 2 -0.4
v 0.7 2 -0.4
v 0.8 2 -0.4
v 0.5 2 -0.6
v 0.6 2 -0.6
v 0.7 2 -0.6
v 0.8 2 -0.6
v 0.5 2 -0.7
v 0.6 2 -0.7
v 0.7 2 -0.7
v 0.8 2 -0.7
v 0 2 -0.8
v 0.8 2 -0.8
v 0 2.8 0
v 0.3 2.8 0
v 0.4 2.8 0
v 0.8 2.8 0
v 0.3 2.8 -0.1
v 0.4 2.8 -0.1
v 0 2.8 -0.2
v 0.1 2.8 -0.2
v 0.5 2.8 -0.2
v 0.6 2.8 -0.2
v 0.7 2.8 -0.2
v 0.8 2.8 -0.2
v 0 2.8 -0.3
v 0.1 2.8 -0.3
v 0.3 2.8 -0.3
v 0.4 2.8 -0.3
v 0.5 2.8 -0.3
v 0.6 2.8 -0.3
v 0.7 2.8 -0.3
v 0.8 2.8 -0.3
v 0.3 2.8 -0.4
v 0.4 2.8 -0.4
v 0.2 2.8 -0.5
v 0.3 2.8 -0.5
v 0.7 2.8 -0.5
v 0.8 2.8 -0.5
v 0.1 2.8 -0.6
v 0.2 2.8 -0.6
v 0.3 2.8 -0.6
v 0.7 2.8 -0.6
v 0.8 2.8 -0.6
v 0.1 2.8 -0.7
v 0.2 2.8 -0.7
v 0.7 2.8 -0.7
v 0.8 2.8 -0.7
v 0 2.8 -0.8
v 0.8 2.8 -0.8

# faces
f 5/3/1 2/3/1 1/3/1
f 5/2/1 3/2/1 2/2/1
f 6/3/1 4/3/1 3/3/1
f 6/2/1 3/2/1 5/2/1
f 7/3/1 4/3/1 6/3/1
f 8/3/1 4/3/1 7/3/1
f 9/3/1 6/3/1 5/3/1
f 9/3/1 7/3/1 6/3/1
f 9/4/1 8/4/1 7/4/1
f 10/3/1 4/3/1 8/3/1
f 10/4/1 8/4/1 9/4/1
f 11/3/1 9/3/1 5/3/1
f 11/3/1 10/3/1 9/3/1
f 12/3/1 10/3/1 11/3/1
f 13/3/1 5/3/1 1/3/1
f 13/3/1 11/3/1 5/3/1
f 14/3/1 11/3/1 13/3/1
f 15/2/1 12/2/1 11/2/1
f 15/3/1 11/3/1 14/3/1
f 16/3/1 10/3/1 12/3/1
f 16/2/1 12/2/1 15/2/1
f 17/3/1 4/3/1 10/3/1
f 17/3/1 10/3/1 16/3/1
f 18/3/1 4/3/1 17/3/1
f 19/4/1 14/4/1 13/4/1
f 19/3/1 13/3/1 1/3/1
f 20/3/1 15/3/1 14/3/1
f 20/4/1 14/4/1 19/4/1
f 20/3/1 16/3/1 15/3/1
f 20/3/1 17/3/1 16/3/1
f 21/4/1 18/4/1 17/4/1
f 21/3/1 17/3/1 20/3/1
f 22/4/1 18/4/1 21/4/1
f 23/3/1 19/3/1 1/3/1
f 23/3/1 20/3/1 19/3/1
f 23/3/1 22/3/1 21/3/1
f 23/3/1 21/3/1 20/3/1
f 24/3/1 22/3/1 23/3/1
f 25/3/1 23/3/1 1/3/1
f 26/4/1 24/4/1 23/4/1
f 26/3/1 23/3/1 25/3/1
f 27/3/1 22/3/1 24/3/1
f 27/4/1 24/4/1 26/4/1
f 28/3/1 22/3/1 27/3/1
f 29/2/2 30/2/2 36/2/2
f 30/3/2 31/3/2 37/3/2
f 36/2/2 30/2/2 37/2/2
f 31/4/2 32/4/2 38/4/2
f 37/3/2 31/3/2 38/3/2
f 32/3/2 33/3/2 39/3/2
f 38/4/2 32/4/2 39/4/2
f 33/2/2 34/2/2 40/2/2
f 39/3/2 33/3/2 40/3/2
f 34/3/2 35/3/2 41/3/2
f 40/2/2 34/2/2 41/2/2
f 39/3/2 40/3/2 42/3/2
f 36/3/2 37/3/2 42/3/2
f 40/3/2 41/3/2 42/3/2
f 38/3/2 39/3/2 42/3/2
f 37/3/2 38/3/2 42/3/2
f 42/3/2 41/3/2 43/3/2
f 41/3/2 35/3/2 44/3/2
f 43/3/2 41/3/2 44/3/2
f 44/3/2 35/3/2 45/3/2
f 36/3/2 42/3/2 46/3/2
f 46/3/2 42/3/2 47/3/2
f 42/4/2 43/4/2 48/4/2
f 47/3/2 42/3/2 48/3/2
f 43/3/2 44/3/2 49/3/2
f 48/4/2 43/4/2 49/4/2
f 44/4/2 45/4/2 50/4/2
f 49/3/2 44/3/2 50/3/2
f 50/4/2 45/4/2 51/4/2
f 46/4/2 47/4/2 52/4/2
f 47/3/2 48/3/2 53/3/2
f 52/4/2 47/4/2 53/4/2
f 48/3/2 49/3/2 53/3/2
f 50/3/2 51/3/2 53/3/2
f 49/3/2 50/3/2 53/3/2
f 53/3/2 51/3/2 54/3/2
f 54/3/2 51/3/2 55/3/2
f 52/2/2 53/2/2 56/2/2
f 53/3/2 54/3/2 57/3/2
f 56/2/2 53/2/2 57/2/2
f 54/2/2 55/2/2 58/2/2
f 57/3/2 54/3/2 58/3/2
f 55/3/2 51/3/2 59/3/2
f 58/2/2 55/2/2 59/2/2
f 59/3/2 51/3/2 60/3/2
f 60/3/2 51/3/2 61/3/2
f 57/3/2 58/3/2 62/3/2
f 56/3/2 57/3/2 62/3/2
f 60/2/2 61/2/2 62/2/2
f 59/3/2 60/3/2 62/3/2
f 58/3/2 59/3/2 62/3/2
f 62/2/2 61/2/2 63/2/2
f 56/3/2 62/3/2 64/3/2
f 62/3/2 63/3/2 64/3/2
f 64/3/2 63/3/2 65/3/2
f 65/3/2 63/3/2 66/3/2
f 66/3/2 63/3/2 67/3/2
f 67/3/2 63/3/2 68/3/2
f 56/3/2 64/3/2 69/3/2
f 64/2/2 65/2/2 70/2/2
f 69/3/2 64/3/2 70/3/2
f 65/3/2 66/3/2 71/3/2
f 70/2/2 65/2/2 71/2/2
f 66/4/2 67/4/2 72/4/2
f 71/3/2 66/3/2 72/3/2
f 67/2/2 68/2/2 73/2/2
f 72/4/2 67/4/2 73/4/2
f 68/3/2 63/3/2 74/3/2
f 73/2/2 68/2/2 74/2/2
f 74/3/2 63/3/2 75/3/2
f 78/3/3 77/3/3 76/3/3
f 79/3/3 77/3/3 78/3/3
f 80/3/3 77/3/3 79/3/3
f 81/3/3 77/3/3 80/3/3
f 82/3/3 78/3/3 76/3/3
f 82/4/3 79/4/3 78/4/3
f 83/3/3 80/3/3 79/3/3
f 83/4/3 79/4/3 82/4/3
f 84/2/3 81/2/3 80/2/3
f 84/3/3 80/3/3 83/3/3
f 85/3/3 77/3/3 81/3/3
f 85/2/3 81/2/3 84/2/3
f 86/3/3 84/3/3 83/3/3
f 86/3/3 83/3/3 82/3/3
f 86/3/3 85/3/3 84/3/3
f 87/3/3 85/3/3 86/3/3
f 88/3/3 77/3/3 85/3/3
f 88/3/3 85/3/3 87/3/3
f 89/3/3 77/3/3 88/3/3
f 90/2/3 87/2/3 86/2/3
f 90/3/3 86/3/3 82/3/3
f 91/3/3 88/3/3 87/3/3
f 91/2/3 87/2/3 90/2/3
f 92/3/3 88/3/3 91/3/3
f 93/3/3 88/3/3 92/3/3
f 94/4/3 89/4/3 88/4/3
f 94/3/3 88/3/3 93/3/3
f 95/4/3 89/4/3 94/4/3
f 96/4/3 93/4/3 92/4/3
f 96/3/3 91/3/3 90/3/3
f 96/3/3 92/3/3 91/3/3
f 97/3/3 95/3/3 94/3/3
f 97/4/3 93/4/3 96/4/3
f 97/3/3 94/3/3 93/3/3
f 98/3/3 97/3/3 96/3/3
f 98/3/3 95/3/3 97/3/3
f 99/3/3 95/3/3 98/3/3
f 100/3/3 82/3/3 76/3/3
f 100/3/3 90/3/3 82/3/3
f 100/3/3 96/3/3 90/3/3
f 100/3/3 98/3/3 96/3/3
f 101/3/3 98/3/3 100/3/3
f 102/3/3 98/3/3 101/3/3
f 103/3/3 98/3/3 102/3/3
f 104/3/3 98/3/3 103/3/3
f 105/2/3 99/2/3 98/2/3
f 105/3/3 98/3/3 104/3/3
f 106/3/3 95/3/3 99/3/3
f 106/2/3 99/2/3 105/2/3
f 107/2/3 101/2/3 100/2/3
f 108/3/3 102/3/3 101/3/3
f 108/2/3 101/2/3 107/2/3
f 109/4/3 103/4/3 102/4/3
f 109/3/3 102/3/3 108/3/3
f 110/2/3 104/2/3 103/2/3
f 110/4/3 103/4/3 109/4/3
f 111/3/3 105/3/3 104/3/3
f 111/2/3 104/2/3 110/2/3
f 111/3/3 106/3/3 105/3/3
f 112/3/3 95/3/3 106/3/3
f 112/3/3 106/3/3 111/3/3
f 113/3/4 114/3/4 117/3/4
f 117/3/4 114/3/4 118/3/4
f 114/4/4 115/4/4 119/4/4
f 118/3/4 114/3/4 119/3/4
f 115/3/4 116/3/4 120/3/4
f 119/4/4 115/4/4 120/4/4
f 117/2/4 118/2/4 121/2/4
f 113/3/4 117/3/4 121/3/4
f 118/3/4 119/3/4 122/3/4
f 121/2/4 118/2/4 122/2/4
f 119/3/4 120/3/4 122/3/4
f 113/3/4 121/3/4 123/3/4
f 121/3/4 122/3/4 123/3/4
f 122/3/4 120/3/4 124/3/4
f 123/3/4 122/3/4 124/3/4
f 113/3/4 123/3/4 125/3/4
f 123/2/4 124/2/4 125/2/4
f 124/3/4 120/3/4 126/3/4
f 125/2/4 124/2/4 126/2/4
f 126/3/4 120/3/4 127/3/4
f 120/3/4 116/3/4 128/3/4
f 127/3/4 120/3/4 128/3/4
f 126/3/4 127/3/4 129/3/4
f 125/3/4 126/3/4 129/3/4
f 127/4/4 128/4/4 129/4/4
f 128/3/4 116/3/4 130/3/4
f 129/4/4 128/4/4 130/4/4
f 113/3/4 125/3/4 131/3/4
f 125/3/4 129/3/4 131/3/4
f 129/3/4 130/3/4 131/3/4
f 131/3/4 130/3/4 132/3/4
f 132/3/4 130/3/4 133/3/4
f 130/3/4 116/3/4 134/3/4
f 133/3/4 130/3/4 134/3/4
f 113/3/4 131/3/4 135/3/4
f 131/4/4 132/4/4 136/4/4
f 135/3/4 131/3/4 136/3/4
f 132/3/4 133/3/4 137/3/4
f 136/4/4 132/4/4 137/4/4
f 133/2/4 134/2/4 138/2/4
f 137/3/4 133/3/4 138/3/4
f 134/3/4 116/3/4 139/3/4
f 138/2/4 134/2/4 139/2/4
f 139/3/4 116/3/4 140/3/4
f 144/3/5 142/3/5 141/3/5
f 145/2/5 143/2/5 142/2/5
f 145/3/5 142/3/5 144/3/5
f 146/2/5 143/2/5 145/2/5
f 147/3/5 144/3/5 141/3/5
f 148/3/5 144/3/5 147/3/5
f 149/2/5 145/2/5 144/2/5
f 149/3/5 144/3/5 148/3/5
f 150/3/5 146/3/5 145/3/5
f 150/2/5 145/2/5 149/2/5
f 151/2/5 148/2/5 147/2/5
f 152/3/5 149/3/5 148/3/5
f 152/2/5 148/2/5 151/2/5
f 152/3/5 150/3/5 149/3/5
f 153/3/5 150/3/5 152/3/5
f 154/3/5 150/3/5 153/3/5
f 155/3/5 146/3/5 150/3/5
f 155/3/5 150/3/5 154/3/5
f 156/3/5 146/3/5 155/3/5
f 157/2/5 154/2/5 153/2/5
f 157/3/5 152/3/5 151/3/5
f 157/3/5 153/3/5 152/3/5
f 158/3/5 155/3/5 154/3/5
f 158/2/5 154/2/5 157/2/5
f 159/4/5 156/4/5 155/4/5
f 159/3/5 155/3/5 158/3/5
f 160/4/5 156/4/5 159/4/5
f 161/3/5 158/3/5 157/3/5
f 161/3/5 159/3/5 158/3/5
f 161/3/5 160/3/5 159/3/5
f 162/3/5 160/3/5 161/3/5
f 163/3/5 160/3/5 162/3/5
f 164/3/5 160/3/5 163/3/5
f 165/3/5 161/3/5 157/3/5
f 165/2/5 162/2/5 161/2/5
f 166/3/5 163/3/5 162/3/5
f 166/2/5 162/2/5 165/2/5
f 167/2/5 164/2/5 163/2/5
f 167/3/5 163/3/5 166/3/5
f 168/2/5 164/2/5 167/2/5
f 169/3/5 157/3/5 151/3/5
f 169/3/5 166/3/5 165/3/5
f 169/3/5 168/3/5 167/3/5
f 169/3/5 167/3/5 166/3/5
f 169/3/5 165/3/5 157/3/5
f 170/3/5 168/3/5 169/3/5
f 171/3/6 172/3/6 175/3/6
f 172/4/6 173/4/6 175/4/6
f 173/3/6 174/3/6 176/3/6
f 175/4/6 173/4/6 176/4/6
f 171/3/6 175/3/6 177/3/6
f 175/3/6 176/3/6 177/3/6
f 177/3/6 176/3/6 178/3/6
f 176/3/6 174/3/6 179/3/6
f 178/3/6 176/3/6 179/3/6
f 179/3/6 174/3/6 180/3/6
f 180/3/6 174/3/6 181/3/6
f 181/3/6 174/3/6 182/3/6
f 177/4/6 178/4/6 183/4/6
f 178/3/6 179/3/6 184/3/6
f 183/4/6 178/4/6 184/4/6
f 184/3/6 179/3/6 185/3/6
f 185/3/6 179/3/6 186/3/6
f 179/4/6 180/4/6 187/4/6
f 186/3/6 179/3/6 187/3/6
f 180/3/6 181/3/6 188/3/6
f 187/4/6 180/4/6 188/4/6
f 181/2/6 182/2/6 189/2/6
f 188/3/6 181/3/6 189/3/6
f 189/2/6 182/2/6 190/2/6
f 185/2/6 186/2/6 191/2/6
f 183/3/6 184/3/6 191/3/6
f 184/3/6 185/3/6 191/3/6
f 186/3/6 187/3/6 192/3/6
f 191/2/6 186/2/6 192/2/6
f 187/3/6 188/3/6 192/3/6
f 188/3/6 189/3/6 192/3/6
f 189/3/6 190/3/6 192/3/6
f 183/3/6 191/3/6 193/3/6
f 191/3/6 192/3/6 193/3/6
f 193/3/6 192/3/6 194/3/6
f 192/3/6 190/3/6 195/3/6
f 194/3/6 192/3/6 195/3/6
f 195/3/6 190/3/6 196/3/6
f 183/3/6 193/3/6 197/3/6
f 193/4/6 194/4/6 198/4/6
f 197/3/6 193/3/6 198/3/6
f 194/3/6 195/3/6 199/3/6
f 198/4/6 194/4/6 199/4/6
f 195/4/6 196/4/6 200/4/6
f 199/3/6 195/3/6 200/3/6
f 200/4/6 196/4/6 201/4/6
f 183/3/6 197/3/6 202/3/6
f 197/2/6 198/2/6 202/2/6
f 198/3/6 199/3/6 203/3/6
f 202/2/6 198/2/6 203/2/6
f 199/3/6 200/3/6 203/3/6
f 200/2/6 201/2/6 204/2/6
f 203/3/6 200/3/6 204/3/6
f 204/2/6 201/2/6 205/2/6
f 202/3/6 203/3/6 206/3/6
f 183/3/6 202/3/6 206/3/6
f 204/3/6 205/3/6 206/3/6
f 203/3/6 204/3/6 206/3/6
f 206/3/6 205/3/6 207/3/6
